<svg width="1149" height="280" viewBox="0 0 1149 280" fill="none" xmlns="http://www.w3.org/2000/svg">
<path fill-rule="evenodd" clip-rule="evenodd" d="M421.407 252.442C421.342 243.268 395.242 232.952 384.094 227.633C362.05 217.114 339.123 207.4 316.409 197.53C293.695 187.661 270.919 177.818 249.26 166.983C235.196 159.95 218.672 152.028 209.134 141.985C188.815 120.582 252.878 123.76 269.472 123.292C311.687 122.096 360.108 122.642 399.678 111.497C423.3 104.843 432.719 93.6841 427.646 77.4207C426.01 72.1315 421.17 66.0451 425.27 60.8924C429.649 55.3892 439.722 52.2136 448.083 50.084C478.577 42.3255 513.637 41.4266 545.902 40.4527C580.693 39.3826 615.811 39.6956 650.356 39.6127C665.004 39.5779 680.302 36.1347 694.251 33.3363C712.538 29.6684 730.608 25.5484 748.744 21.5648C788.641 12.8218 829.752 3.61322 871.963 1.39269C898.397 0.00150777 927.289 1.88228 947.824 13.9829C958.135 20.0586 963.531 29.0905 969.492 37.1139C976.707 46.8067 983.637 56.5931 991.319 66.1334C1016.06 96.8597 1051.4 126.885 1108.74 128.394C1117.42 128.621 1125.94 127.88 1134.57 127.741C1140.07 127.656 1144.96 128.525 1147.01 132.289C1152.15 141.731 1135.99 156.635 1129.37 164.126C1114.87 180.523 1098.52 196.185 1083.2 212.253C1073.06 222.879 1055.52 237.401 1055.34 250.312C1055.17 261.816 1078.56 270.131 1091.29 275.798C1103.22 281.103 1124.83 288.527 1126.14 299.319C1126.77 304.552 1121.5 308.889 1115.99 312.254C1106.34 318.14 1095.22 322.292 1086.54 329.008C1072.3 340.025 1060.4 355.183 1062.34 370.029C1063.68 380.315 1072.65 387.052 1084.06 393.491C1088.85 396.199 1092.74 398.114 1093 402.51C1093.41 409.49 1089.23 416.877 1085.79 423.348C1073.47 446.509 1055.98 468.904 1036.53 489.815C1026.8 500.264 1016.3 510.682 1003.41 519.596C994.97 525.45 983.584 532.417 970.706 532.409C955.796 532.409 940.02 528.888 925.527 526.255C898.459 521.335 871.718 515.648 845.083 509.813C783.487 496.313 722.47 481.72 662.032 466.033C619.461 454.965 575.987 443.881 535.963 429.167C528.158 426.278 520.79 422.908 513.96 419.105C506.663 415.111 497.608 413.324 488.425 411.991C431.435 403.722 369 410.07 311.773 414.051C297.247 415.06 282.722 416.074 268.155 416.78C255.633 417.388 240.642 419.129 228.471 416.513C204.49 411.363 225.454 392.381 234.317 384.647C265.523 357.414 305.784 334.374 343.101 310.853C360.844 299.651 378.722 288.479 395.5 276.643C404.236 270.49 421.464 260.484 421.407 252.442Z" stroke="#5BE7C3"/>
<path fill-rule="evenodd" clip-rule="evenodd" d="M432.161 250.895C422.596 241.188 405.815 234.013 391.885 227.261C371.839 217.54 351.162 208.36 330.797 198.915C311.541 189.983 292.243 180.95 274.411 170.807C263.537 164.621 249.893 157.225 244.742 148.076C233.57 128.248 293.675 131.256 308.513 130.737C345.402 129.454 387.225 129.159 421.352 118.719C442.663 112.2 451.417 101.388 446.872 86.3782C445.301 81.1849 442.47 76.7512 446.054 71.5847C450.198 65.6053 459.73 61.8775 468.469 59.2461C495.842 51.0016 528.198 49.2501 557.87 47.7927C588.524 46.2871 620.463 45.2254 650.131 46.3272C661.995 46.7658 675.651 44.2761 687.392 42.3668C705.458 39.4252 723.34 36.0317 741.316 32.8762C777.849 26.4582 815.331 20.2755 853.337 19.5722C880.775 19.0641 909.384 21.8185 932.212 32.4643C955.347 43.2599 965.611 59.9948 978.441 75.9034C1000.6 103.407 1030.52 136.848 1081.78 142.659C1089.56 143.541 1097.03 143.062 1104.79 143.279C1108.78 143.389 1113.33 143.736 1115.36 146.311C1120.61 152.997 1106.21 165.221 1101.36 170.342C1087.97 184.493 1072.91 197.952 1058.87 211.831C1047.72 222.851 1033.59 235.096 1029.28 248.16C1024.05 264.012 1058.24 275.292 1070.26 286.454C1091.1 305.809 1051.61 316.838 1032.14 326.066C1009.79 336.661 991.331 355.99 1011.37 372.383C1019.04 378.651 1028.47 382.387 1031.9 390.567C1037.25 403.36 1033.2 417.98 1028.86 430.626C1022.31 449.636 1011.95 468.441 997.873 485.623C987.785 497.924 971.048 517.213 946.539 515.766C930.04 514.8 913.266 511.273 897.201 508.155C873.146 503.489 849.393 498.17 825.767 492.645C771.23 479.927 717.294 465.903 664.417 450.479C628.338 439.951 527.699 396.926 520.126 395.391C497.548 390.818 471.877 391.623 448.599 392.332C417.634 393.273 386.824 395.712 356.039 397.972C341.385 399.041 326.657 400.349 311.925 400.876C301.44 401.25 287.67 401.571 278.485 397.584C260.558 389.805 280.531 372.006 288.791 364.475C314.094 341.389 346.102 321.397 376.114 300.956C390.841 290.92 405.794 280.899 419.164 270.058C424.556 265.681 438.072 256.891 432.161 250.895Z" stroke="#5ACEF2"/>
<path fill-rule="evenodd" clip-rule="evenodd" d="M445.393 245.917C419.272 226.492 383.219 212.044 352.103 195.821C336.486 187.676 320.77 179.309 307.3 169.607C300.294 164.562 291.544 158.182 290.194 151.15C286.586 132.337 340.76 134.881 356.975 134.167C388.324 132.781 423.739 131.73 452.179 122.13C469.556 116.261 478.113 106.629 474.865 93.9684C473.425 88.3511 471.184 83.5791 474.865 78.0634C478.595 72.4755 486.367 68.5327 494.237 65.5769C516.853 57.0761 544.959 54.3583 570.422 52.3334C600.292 49.9749 630.387 49.0541 660.464 49.5783C686.807 50.0303 713.022 44.9453 738.743 41.5936C772.816 37.156 807.507 33.28 842.374 33.8658C869.911 34.3313 897.664 37.9879 921.205 47.7058C945.126 57.603 959.508 72.4167 972.474 88.4019C992.076 112.567 1016.5 144.95 1059.51 154.127C1065.76 155.465 1071.59 155.612 1078.04 155.845C1081.17 155.957 1085.22 155.992 1086.77 158.129C1090.51 163.275 1076.69 173.253 1072.83 176.73C1060.52 187.831 1047.17 198.432 1034.55 209.386C1022.77 219.612 1009.94 230.269 1002.62 242.252C990.979 261.338 1028.21 272.497 1027.17 290.684C1026.52 301.975 1009.99 310.072 996.898 315.673C980.782 322.561 957.577 327.09 949.511 339.659C943.502 349.021 952.93 354.47 960.191 361.575C972.495 373.612 973.333 389.929 972.053 403.862C970.327 422.691 963.582 441.798 952.1 459.105C946.897 466.95 940.524 475.111 931.14 481.205C922.35 486.916 914.03 488.379 902.282 487.21C866.319 483.626 830.009 473.635 795.522 464.711C752.192 453.498 709.459 441.119 668.003 427.19C639.734 417.692 610.827 407.642 586.014 394.519C579.547 391.098 572.925 387.38 568.196 382.867C564.621 379.475 563.104 376.675 557.079 374.738C539.22 369 514.379 370.501 495.244 371.097C464.647 372.047 434.198 374.575 403.79 376.851C386.045 378.189 352.618 382.396 338.449 372.304C326.219 363.589 340.977 348.73 348.516 341.053C367.585 321.638 392.116 304.599 414.875 287.054C425.305 279.014 436.145 270.911 444.759 261.972C446.96 259.693 450.486 256.673 451.091 253.904C451.77 250.732 448.6 248.311 445.393 245.917Z" stroke="#5BE7C3"/>
<path fill-rule="evenodd" clip-rule="evenodd" d="M447.639 250.439C423.502 233.263 394.423 219.153 368.51 203.081C356.891 195.874 345.158 188.314 336.305 179.523C331.543 174.796 326.487 168.845 327.8 162.969C331.568 146.104 376.123 147.627 394.124 146.639C420.871 145.188 451.599 143.727 475.249 134.633C490.742 128.677 496.551 119.88 493.659 108.535C490.554 96.3657 497.496 87.5317 513.296 80.7429C533.105 72.2382 558.109 68.7715 581.109 66.3087C608.819 63.3557 636.881 62.0466 664.951 62.3976C692.251 62.7403 718.699 59.7474 745.819 57.8013C781.775 55.2234 818.885 53.9518 854.436 59.2361C885.389 63.8379 913.347 73.9782 934.305 89.6599C956.197 106.027 967.034 126.648 984.809 144.755C995.896 156.049 1011.36 170.989 1032.07 175.379C1038.98 176.844 1051.58 174.868 1046.06 182.072C1042.9 186.192 1037 189.805 1032.33 193.173C1024.8 198.615 1017.01 203.908 1009.35 209.275C993.02 220.716 975.531 232.401 963.29 245.95C947.867 263.007 970.793 276.135 967.999 293.431C966.498 302.739 956.606 310.167 946.141 316.003C939.37 319.783 931.961 323.057 924.397 326.112C916.497 329.302 907.149 331.733 900.26 335.858C890.441 341.729 894.704 348.678 896.545 356.268C899.785 369.605 900.497 383.153 898.664 396.604C896.422 413.092 891.165 430.05 880.091 445.033C875.783 450.866 870.326 457.05 862.221 460.961C854.117 464.872 845.734 464.605 836.448 463.427C808.903 459.947 781.415 451.849 755.285 444.174C722.582 434.566 690.52 423.829 659.903 411.614C638.768 403.182 617.564 394.072 599.883 382.638C594.741 379.311 589.848 375.748 585.892 371.77C583.175 369.042 581.719 365.522 577.783 363.471C565.469 357.071 540.747 358.982 526.306 359.354C497.484 360.096 469.117 363.621 440.332 364.478C424.623 364.946 400.019 366.124 388.482 357.373C377.633 349.147 387.46 336.19 393.944 328.264C406.688 312.678 423.809 298.793 439.154 284.305C445.462 278.344 452.376 272.106 456.463 265.299C460.096 259.233 453.825 254.843 447.639 250.439Z" stroke="#5ACEF2"/>
<path fill-rule="evenodd" clip-rule="evenodd" d="M453.576 250.72C434.363 235.606 411.202 222.19 391.851 206.83C380.524 197.835 361.017 182.713 369.777 170.031C379.387 156.096 412.886 155.717 432.25 154.594C455.297 153.257 482.362 151.432 502.085 142.731C508.323 139.98 513.637 136.339 515.889 131.544C518.301 126.411 515.665 121.92 515.321 116.782C514.602 106.004 524.437 97.3514 537.452 91.4091C555.847 83.0074 578.849 79.0351 600.575 76.2657C625.19 73.1422 650.213 71.6023 675.287 71.668C699.249 71.7214 722.958 71.3739 746.945 70.9729C778.315 70.4383 810.125 71.3017 840.555 76.7523C870.53 82.1253 897.783 92.195 919.191 107.007C940.075 121.46 954.165 139.127 966.506 157.123C973.509 167.337 985.339 182.6 1002.04 187.76C1009.47 190.056 1016.76 189.898 1008.86 195.87C998.914 203.389 985.51 209.423 973.991 215.854C957.374 225.135 940.341 234.598 926.393 245.633C917.486 252.679 913.517 259.517 914.13 268.641C914.604 275.591 916.754 282.469 915.667 289.446C913.12 305.821 893.405 317.051 875.975 327.508C864.762 334.234 854.522 339.364 848.751 348.931C841.924 360.238 839.059 372.54 834.497 384.28C829.485 397.173 823.697 410.584 812.758 421.94C803.021 432.049 791.179 436.583 773.454 433.859C745.809 429.614 718.56 419.157 694.017 409.483C669.037 399.64 644.486 388.573 623.785 375.045C612.61 367.739 604.982 359.161 595.057 351.313C582.573 341.459 554.331 345.191 537.546 346.025C509.684 347.41 422.014 357.771 430.104 324.212C433.48 310.205 446.778 297.278 456.503 284.917C460.533 279.788 466.366 273.631 467.278 267.753C468.271 261.351 459.352 255.27 453.576 250.72Z" stroke="#FF8062"/>
<path fill-rule="evenodd" clip-rule="evenodd" d="M463.72 252.003C449.038 238.307 431.467 225.368 418.869 210.575C410.697 200.995 402.672 188.194 413.214 178.058C425.113 166.619 451.351 163.952 470.629 162.495C490.492 160.994 514.205 159.732 530.439 151.058C535.604 148.296 539.862 144.57 540.655 140.109C541.419 135.83 539.261 131.55 539.976 127.194C541.578 117.41 550.645 109.349 562.336 103.503C596.917 86.2065 648.387 82.3605 690.111 81.9085C710.996 81.6839 732.489 82.8633 753.509 83.7085C780.784 84.8051 808.101 87.1587 834.113 92.8313C889.42 104.888 926.49 131.628 952.38 164.902C960.528 175.375 966.764 186.707 979.533 195.124C986.116 199.47 984.678 202.591 977.948 206.555C967.426 212.749 954.591 217.483 942.913 222.653C926.302 230.005 909.336 237.467 894.646 246.274C884.521 252.346 877.333 258.195 875.151 267.299C873.594 273.79 873.958 280.404 873.022 286.935C871.241 299.342 865.14 311.656 854.34 321.948C845.759 330.105 835.544 337.519 824.985 344.587C811.259 353.79 799.65 363.141 789.226 374.063C775.407 388.522 755.989 415.192 723.439 408.134C687.537 400.346 653.887 380.557 630.853 361.383C623.118 354.946 616.768 347.051 606.336 342.303C590.719 335.208 574.872 335.457 556.297 335.486C528.486 335.526 467.969 339.476 467.315 312.218C467.058 301.418 474.201 291.206 477.621 280.819C481.478 269.184 473.747 261.337 463.72 252.003Z" stroke="#F1B170"/>
<path fill-rule="evenodd" clip-rule="evenodd" d="M474.655 253.224C460.133 235.374 427.568 206.041 452.336 186.192C465.419 175.701 488.56 171.759 507.972 169.41C523.594 167.51 542.433 166.796 554.237 158.741C562.912 152.818 559.061 144.199 562.385 136.785C566.51 127.593 575.979 120.073 587.615 114.42C620.13 98.6219 665.341 93.7737 704.455 92.742C745.078 91.6729 789.838 96.6735 828.066 106.292C875.729 118.29 911.437 141.008 936.41 169.776C941.017 175.087 945.204 180.536 949.628 185.911C952.6 189.516 957.007 193.004 959.35 196.797C963.25 203.12 958.655 208.289 951.288 212.41C940.69 218.344 927.673 222.566 915.591 227.019C899.07 233.113 882.18 239.097 866.812 246.246C856.484 251.057 845.675 256.239 841.979 264.586C839.456 270.279 838.933 276.308 839.023 282.204C839.219 294.846 838.205 305.069 829.186 316.647C814.345 335.655 791.523 352.746 767.413 366.967C748.492 378.128 718.552 395.466 690.983 388.004C666.248 381.322 651.779 365.329 635.483 352.399C627.559 346.113 618.659 340.372 608.2 335.9C595.015 330.264 582.602 327.899 566.98 326.976C540.688 325.424 501.042 325.02 492.914 304.387C489.913 296.773 491.626 288.886 490.052 281.172C487.995 270.974 481.981 262.229 474.655 253.224Z" stroke="#5BE7C3"/>
<path fill-rule="evenodd" clip-rule="evenodd" d="M489.755 253.885C479.414 234.353 465.829 209.738 490.805 192.378C502.903 183.969 519.921 179.267 536.391 175.754C548.186 173.237 566.916 172.495 574.147 164.755C579.459 159.058 580.194 151.2 584.999 145.097C591.602 136.706 601.604 129.795 613.338 124.385C643.908 110.287 683.724 104.839 720.035 103.28C798.932 99.8949 879.209 126.852 921.428 171.203C934.016 184.423 950.265 198.495 929.922 212.001C907.712 226.736 874.253 233.639 847.745 244.109C837.616 248.106 824.709 252.912 819.058 260.149C815.659 264.5 815.426 269.958 815.271 274.747C814.862 286.946 813.314 297.916 805.816 309.298C794.237 326.887 775.773 343.115 754.85 356.408C736.603 367.998 710.58 381.62 684.08 373.264C663.761 366.843 650.875 353.213 635.087 343.166C617.518 331.976 595.79 324.436 571.929 320.752C548.717 317.177 523.259 314.767 511.026 299.58C506.83 294.37 502.446 287.625 500.873 281.859C498.333 272.352 494.615 262.997 489.755 253.885V253.885Z" stroke="#FF8062"/>
<path fill-rule="evenodd" clip-rule="evenodd" d="M506.593 254.023C501.809 234.3 501.277 213.734 523.505 198.189C533.879 190.937 546.992 185.785 560.252 181.117C570.009 177.682 580.084 174.785 587.371 169.154C594.122 163.94 599.253 157.887 605.771 152.536C614.369 145.446 624.656 139.309 636.238 134.359C665.27 121.976 700.586 116.185 734.374 114.176C750.729 113.2 768.472 112.691 784.717 115.353C800.406 117.921 815.92 121.982 830.346 126.717C861.013 136.772 887.592 151.498 906.859 170.117C920.07 182.888 927.214 195.305 910.106 208.261C890.818 222.864 860.576 230.921 835.649 240.399C818.553 246.899 799.392 253.271 796.199 267.085C793.656 278.077 791.591 288.51 785.011 298.9C775.22 314.225 760.823 328.108 742.674 339.724C726.077 350.307 705.08 359.287 681.339 353.635C662.53 349.148 647.937 339.098 631.503 331.913C613.188 323.888 593.067 319.463 571.877 315.905C552.835 312.695 534.905 307.762 522.597 297.29C520.078 295.15 517.433 292.82 515.49 290.425C513.012 287.37 513.205 284.342 512.718 280.918C511.45 271.882 508.756 262.95 506.593 254.023Z" stroke="#F1B170"/>
<path fill-rule="evenodd" clip-rule="evenodd" d="M525.158 252.411C525.566 233.677 532.453 215.972 551.315 201.372C559.379 195.126 569.008 189.982 577.881 184.258C585.025 179.645 591.777 175.358 599.992 171.556C619.479 162.553 635.317 150.903 656.026 142.886C683.671 132.169 715.337 126.245 746.759 123.876C762.102 122.719 777.951 122.314 793.474 123.622C806.806 124.744 819.574 128.686 831.419 132.718C854.633 140.617 877.173 151.843 892.247 166.047C925.479 197.361 859.959 220.127 826.33 233.46C810.865 239.593 787.233 246.696 780.898 258.844C776.37 267.523 773.611 276.348 767.779 284.759C752.113 307.346 720.311 333.912 677.932 330.375C659.798 328.864 643.27 322.726 626.341 318.605C608.91 314.361 590.919 311.995 572.801 309.399C555.868 306.974 542.372 303.523 531.435 294.271C526.208 289.853 526.67 284.563 526.204 279.143C525.444 270.24 524.974 261.285 525.158 252.411Z" stroke="#5BE7C3"/>
<path fill-rule="evenodd" clip-rule="evenodd" d="M542.063 250.011C548.871 221.734 574.157 190.863 611.338 174.441C655.073 155.123 702.454 138.856 754.708 134.179C778.934 132.011 805.473 130.944 828.332 138.035C845.73 143.428 865.938 151.489 875.513 162.826C898.937 190.555 846.835 212.63 817.15 225.458C801.168 232.365 780.825 239.094 768.779 249.18C761.79 255.027 758.223 262.762 752.58 269.185C735.481 288.647 707.335 304.345 672.274 307.152C656.063 308.449 639.733 306.845 623.645 305.569C607.176 304.264 590.503 303.556 574.137 301.735C561.072 300.28 545.675 297.818 540.864 288.671C534.796 277.145 539.284 261.559 542.063 250.011Z" stroke="#5ACEF2"/>
<path fill-rule="evenodd" clip-rule="evenodd" d="M558.64 245.469C568.569 218.883 589.596 192.95 624.944 177.079C643.689 168.663 665.448 162.854 686.34 157.114C710.021 150.609 734.763 145.559 760.034 143.054C791.498 139.934 842.457 137.122 858.896 160.577C875.212 183.858 833.982 204.462 809.6 216.205C793.968 223.727 777.239 230.631 762.303 238.854C754.205 243.312 747.966 248.463 741.113 253.692C722.171 268.18 695.168 279.649 667.644 285.771C640.969 291.707 607.968 294.335 579.81 292.373C567.66 291.53 558.975 288.686 555.301 280.599C550.209 269.357 554.535 256.451 558.64 245.469Z" stroke="#F1B170"/>
<path fill-rule="evenodd" clip-rule="evenodd" d="M575.112 238.308C584.976 214.901 606.253 193.521 637.287 179.472C672.076 163.723 716.871 154.972 758.044 150.522C779.929 148.158 827.355 141.749 838.51 160.091C849.665 178.433 817.417 196.508 798.857 206.459C776.331 218.517 752.044 230.159 727.785 240.979C706.709 250.385 684.219 260.003 661.39 267.267C648.515 271.388 635.103 274.753 621.312 277.321C611.101 279.208 598.116 282.022 587.41 280.618C560.407 277.071 570.394 249.501 575.112 238.308Z" stroke="#FF8062"/>
<path fill-rule="evenodd" clip-rule="evenodd" d="M595.444 231.299C617.088 187.032 685.66 165.261 751.685 157.673C767.027 155.911 810.036 149.56 818.612 163.083C826.922 176.193 800.493 191.742 788.119 199.109C749.778 221.936 702.408 238.861 657.52 255.628C643.509 260.862 618.239 272.219 600.859 266.98C581.989 261.281 590.961 240.478 595.444 231.299Z" stroke="#5ACEF2"/>
<path fill-rule="evenodd" clip-rule="evenodd" d="M617.614 222.779C636.436 190.18 691.182 171.483 741.515 165.319C753.844 163.811 785.154 159.115 794.491 168.213C803.132 176.628 782.511 188.821 774.796 193.667C757.621 204.456 737.267 213.345 717.158 221.888C698.565 229.793 679.772 237.895 660.208 244.58C649.904 248.099 630.577 255.608 618.868 250.174C606.261 244.329 613.435 230.017 617.614 222.779Z" stroke="#5ACEF2"/>
<path fill-rule="evenodd" clip-rule="evenodd" d="M642.044 213.254C656.39 191.966 694.812 178.142 728.705 173.548C737.825 172.315 757.536 169.115 765.23 174.8C772.313 180.036 760.897 187.712 755.831 191.257C733.378 206.97 700.497 221.005 670.371 229.626C662.796 231.793 649.18 236.047 641.388 231.672C633.396 227.18 638.749 218.143 642.044 213.254Z" stroke="#5BE7C3"/>
<path fill-rule="evenodd" clip-rule="evenodd" d="M667.961 204.312C676.044 193.741 697.172 185.765 714.674 183.227C726.991 181.441 741.796 182.984 731.062 192.185C720.398 201.317 700.612 209.657 683.842 213.354C671.047 216.174 661.019 213.392 667.961 204.312Z" stroke="#F1B170"/>
<path fill-rule="evenodd" clip-rule="evenodd" d="M12.4239 277.528C11.9054 256.644 -5.05705 234.939 3.32008 213.659C10.199 196.181 44.8302 194.722 65.6056 186.804C82.1149 180.513 91.4841 169.369 100.412 158.677C108.434 149.078 115.64 139.19 124.09 129.749C129.561 123.645 138.955 111.659 150.818 111.443C162.175 111.234 172.59 120.574 179.187 126.096C187.788 133.292 195.414 140.965 203.767 148.276C217.843 160.609 234.732 169.738 254.071 178.378C276.078 188.209 298.448 197.704 321.182 206.863C337.92 213.627 354.772 220.34 370.861 227.771C380.952 232.435 403.226 241.184 403.328 249.781C403.377 253.883 397.437 258.426 393.432 261.705C386.656 267.256 378.932 272.331 371.183 277.296C356.752 286.545 341.708 295.375 326.828 304.311C307.514 315.909 289.065 327.317 272.086 340.484C254.532 354.113 237.761 368.191 220.648 382.077C209.058 391.484 197.48 402.048 180.763 407.82C159.824 415.036 142.637 407.427 121.461 407.339C103.246 407.262 104.589 379.64 102.274 371.96C99.9511 364.186 94.8317 356.949 92.8476 349.156C90.3737 339.429 90.341 329.477 89.7327 319.645C88.9938 307.619 88.6999 296.171 69.0594 291.585C57.8817 288.98 45.7896 288.432 34.22 286.871C26.7246 285.858 12.5872 284.127 12.4239 277.528Z" stroke="#FF8062"/>
<path fill-rule="evenodd" clip-rule="evenodd" d="M21.3791 273.813C19.4697 256.307 8.18928 233.9 18.8565 215.829C27.97 200.386 56.4717 198.384 75.6636 190.272C91.507 183.581 98.5598 172.631 106.479 161.875C112.833 153.246 118.995 144.534 126.207 136.181C131.522 130.025 139.638 119.633 150.69 118.359C160.625 117.213 171.28 126.388 176.857 131.056C184.993 137.87 191.952 145.27 199.14 152.515C211.769 165.242 224.702 176.686 243.186 186.035C261.753 195.424 282.065 202.444 302.594 209.751C318.654 215.467 334.632 221.35 349.891 227.95C361.257 232.864 377.599 239.154 382.8 247.916C386.917 254.848 366.037 266.351 359.879 270.412C347.205 278.759 333.773 286.596 320.318 294.384C303.914 303.875 286.987 312.174 272.502 323.001C246.592 342.356 224.935 366.46 191.596 380.846C171.488 389.523 149.111 391.742 126.747 390.444C117.891 389.93 115.765 381.748 114.649 376.976C112.792 369.048 112.559 360.984 111.132 353.025C109.795 345.573 106.827 338.494 104.435 331.188C102.015 323.785 101.336 316.2 99.5533 308.746C98.4494 304.118 97.3578 298.733 92.5291 295.013C87.5328 291.162 79.2902 289.548 72.0861 288.322C58.5568 286.042 22.7284 286.168 21.3791 273.813Z" stroke="#5BE7C3"/>
<path fill-rule="evenodd" clip-rule="evenodd" d="M32.9048 266.485C29.6937 250.415 25.1981 230.4 38.28 215.595C48.9729 203.489 71.7783 200.878 88.0673 192.99C101.615 186.431 106.733 175.998 113.458 166.304C118.976 158.352 124.523 150.365 131.211 142.798C136.284 137.059 142.821 129.278 152.892 127.276C161.503 125.566 171.23 133.229 176.004 137.043C184.132 143.544 190.759 150.827 197.341 158.015C208.107 169.776 218.015 182.338 233.339 191.905C248.228 201.188 265.916 206.667 283.936 212.829C297.738 217.549 311.454 222.451 324.458 228.08C334.443 232.4 346.817 237.518 352.021 244.706C356.52 250.904 344.968 258.242 339.196 262.614C329.665 269.831 319.087 276.452 308.656 283.1C297.398 290.271 284.93 296.887 274.036 304.235C251.129 319.697 232.827 336.817 204.594 348.664C186.308 356.338 161.703 363.309 140.088 362.055C124.544 361.152 125.566 338.64 124.073 331.448C121.619 319.687 116.878 307.33 109.347 296.496C102.879 287.213 87.5109 284.351 73.3736 282.268C64.5174 280.961 55.2357 280.256 46.6699 278.235C36.7542 275.893 34.2507 273.221 32.9048 266.485Z" stroke="#5ACEF2"/>
<path fill-rule="evenodd" clip-rule="evenodd" d="M43.656 258.952C41.744 245.366 42.1739 229.301 54.5586 217.548C65.4121 207.254 84.7364 204.544 98.4803 196.435C109.207 190.108 113.42 179.792 119.188 171.426C126.238 161.196 136.118 142.302 153.902 138.453C170.447 134.874 187.749 157.735 193.738 164.552C203.22 175.342 211.151 187.175 222.651 197.14C232.555 205.718 245.824 210.46 259.907 215.556C277.864 222.065 305.127 229.783 314.728 242.468C321.884 251.921 298.613 265.973 290.667 272.522C282.355 279.364 276.096 287.473 267.518 294.073C253.983 304.488 232.051 312.873 213.943 319.272C196.338 325.497 173.476 332.386 153.505 331.976C140.38 331.708 137.882 318.444 135.082 311.964C131.07 302.753 125.735 294.499 114.275 288.234C102.611 281.857 88.8632 278.852 74.411 276.222C66.9925 274.881 58.5299 273.836 51.8934 271.128C44.5608 268.182 44.3929 264.175 43.656 258.952Z" stroke="#F1B170"/>
<path fill-rule="evenodd" clip-rule="evenodd" d="M56.7553 251.121C56.8614 239.384 60.9626 226.868 73.1235 217.814C83.2522 210.273 99.1063 207.752 108.802 200.043C116.483 193.939 120.392 185.371 125.534 178.283C131.822 169.598 140.715 154.424 156.352 151.41C171.615 148.476 185.114 165.188 190.966 171.801C199.536 181.498 206.473 191.776 215.121 201.446C221.895 209.032 230.179 213.922 241.21 218.812C254.158 224.555 272.224 230.917 279.141 240.419C284.128 247.299 272.057 258.292 267.674 264.353C264.736 268.423 262.046 272.558 260.569 276.97C259.418 280.406 259.304 283.586 255.97 286.536C247.576 293.957 229.171 294.926 216.684 297.372C200.099 300.618 182.502 304.308 165.147 305.012C154.479 305.452 149.035 299.02 142.947 294.496C135.752 289.148 125.566 285.301 116.67 281.265C104.93 275.93 92.1525 272.611 78.9347 269.213C72.9725 267.679 65.9698 266.175 61.3503 263.126C56.5267 259.964 56.7185 255.358 56.7553 251.121Z" stroke="#FF8062"/>
<path fill-rule="evenodd" clip-rule="evenodd" d="M70.5134 244.154C72.6213 234.296 79.19 224.874 90.2849 217.905C98.7898 212.555 110.085 209.543 116.911 203.115C123.271 197.122 127.704 190.309 132.957 183.902C138.517 177.129 146.776 165.808 159.599 163.964C173.419 161.979 184.064 173.4 189.959 179.729C197.406 187.727 203.064 196.333 209.722 204.607C214.739 210.774 221.137 216.415 228.705 221.34C236.643 226.533 247.407 231.506 251.422 238.645C254.972 244.969 248.33 252.62 247.157 259.032C245.903 265.883 248.101 273.079 241.148 278.962C226.81 291.094 190.825 288.844 170.253 289.103C149.955 289.371 133.635 281.947 117.209 274.885C106.359 270.222 95.0602 266.274 83.9368 261.93C72.5968 257.497 68.6588 252.829 70.5134 244.154Z" stroke="#5ACEF2"/>
<path fill-rule="evenodd" clip-rule="evenodd" d="M83.296 238.511C89.5294 224.23 108.998 216.64 122.916 205.847C134.304 197.012 142.842 178.715 162.021 176.295C183.795 173.548 196.83 197.791 204.4 207.146C212.8 217.521 227.76 225.96 233.981 236.942C237.251 242.707 234.443 248.086 232.702 253.847C230.793 260.174 229.358 266.642 222.769 271.735C209.8 281.756 184.469 281.687 166.227 281.962C147.343 282.249 130.637 275.381 115.591 268.527C99.6337 261.269 76.9114 253.157 83.296 238.511Z" stroke="#5ACEF2"/>
<path fill-rule="evenodd" clip-rule="evenodd" d="M93.7365 234.639C100.76 224.464 115.52 216.192 127.497 208.383C137.494 201.873 148.248 188.768 163.49 187.834C181.403 186.732 192.26 200.726 199.309 209.307C206.246 217.738 216.243 226.641 220.084 235.895C224.09 245.535 213.423 258.518 203.249 265.339C191.902 272.945 173.338 275.756 157.408 275.453C140.73 275.144 125.426 268.857 112.795 262.337C99.2905 255.366 85.568 246.45 93.7365 234.639Z" stroke="#FF8062"/>
<path fill-rule="evenodd" clip-rule="evenodd" d="M103.424 232.723C110.133 224.26 121.763 217.102 132.487 210.716C140.762 205.786 152.973 197.403 164.912 197.198C178.046 196.971 189.177 204.007 194.399 211.22C199.546 218.333 204.97 227.252 205.74 235.056C207.414 252.051 173.348 271.088 147.768 269.539C123.515 268.07 90.0466 249.585 103.424 232.723Z" stroke="#5ACEF2"/>
<path fill-rule="evenodd" clip-rule="evenodd" d="M112.383 231.79C121.639 220.764 144.122 205.044 164.936 204.671C188.827 204.244 194.825 221.737 191.711 234.414C188.547 247.352 161.002 266.08 139.038 263.549C117.602 261.08 101.414 244.867 112.383 231.79Z" stroke="#5BE7C3"/>
<path fill-rule="evenodd" clip-rule="evenodd" d="M121.843 230.007C129.679 220.775 146.402 209.244 163.843 208.895C184.625 208.482 184.233 223.25 179.521 232.442C174.62 241.986 153.038 258.287 134.841 255.713C117.146 253.201 114.333 238.856 121.843 230.007Z" stroke="#FF8062"/>
<path fill-rule="evenodd" clip-rule="evenodd" d="M130.082 228.945C135.254 222.357 148.2 214.031 160.508 213.765C175.551 213.445 172.626 225.158 168.74 230.812C164.12 237.54 148.635 249.229 135.639 247.335C122.845 245.47 125.814 234.372 130.082 228.945Z" stroke="#5ACEF2"/>
</svg>
