<svg width="516" height="408" viewBox="0 0 516 408" fill="none" xmlns="http://www.w3.org/2000/svg">
<path fill-rule="evenodd" clip-rule="evenodd" d="M54.4655 -37.5582C54.424 -46.732 37.8816 -57.0481 30.8153 -62.3667C16.8434 -72.8862 2.31174 -82.6003 -12.0852 -92.4697C-26.482 -102.339 -40.9178 -112.182 -54.6462 -123.017C-63.56 -130.05 -74.0338 -137.972 -80.0791 -148.015C-92.9575 -169.418 -52.3529 -166.24 -41.8351 -166.708C-15.078 -167.904 15.6125 -167.358 40.6931 -178.503C55.6652 -185.157 61.6354 -196.316 58.4197 -212.579C57.3832 -217.869 54.3152 -223.955 56.9142 -229.108C59.6894 -234.611 66.0742 -237.786 71.3733 -239.916C90.7013 -247.675 112.924 -248.573 133.374 -249.547C155.425 -250.617 177.684 -250.304 199.58 -250.387C208.864 -250.422 218.561 -253.865 227.402 -256.664C238.992 -260.332 250.446 -264.452 261.94 -268.435C287.228 -277.178 313.286 -286.387 340.04 -288.607C356.795 -289.998 375.107 -288.118 388.123 -276.017C394.658 -269.941 398.079 -260.909 401.857 -252.886C406.43 -243.193 410.822 -233.407 415.691 -223.867C431.376 -193.14 453.769 -163.115 490.117 -161.606C495.615 -161.379 501.015 -162.12 506.488 -162.259C509.973 -162.344 513.075 -161.475 514.371 -157.711C517.628 -148.269 507.39 -133.365 503.192 -125.874C494.001 -109.477 483.636 -93.8154 473.927 -77.7473C467.503 -67.1208 456.384 -52.599 456.267 -39.6878C456.164 -28.1838 470.986 -19.8688 479.055 -14.2025C486.616 -8.89724 500.316 -1.47316 501.145 9.31918C501.547 14.5522 498.204 18.8889 494.713 22.2545C488.596 28.1402 481.547 32.2924 476.044 39.0075C467.018 50.0246 459.478 65.1831 460.704 80.0286C461.553 90.3153 467.239 97.0518 474.471 103.491C477.51 106.199 479.977 108.114 480.138 112.51C480.397 119.49 477.749 126.877 475.567 133.348C467.762 156.509 456.677 178.904 444.345 199.815C438.183 210.264 431.526 220.682 423.356 229.596C418.005 235.45 410.789 242.417 402.626 242.409C393.176 242.409 383.176 238.888 373.99 236.255C356.834 231.335 339.885 225.648 323.003 219.813C283.962 206.313 245.287 191.72 206.98 176.033C179.998 164.965 152.443 153.881 127.074 139.167C122.127 136.278 117.457 132.908 113.128 129.105C108.503 125.111 102.764 123.324 96.9436 121.991C60.8218 113.722 21.2484 120.07 -15.0236 124.051C-24.2303 125.06 -33.4369 126.074 -42.6695 126.78C-50.6064 127.388 -60.1085 129.129 -67.8226 126.513C-83.0228 121.363 -69.7349 102.381 -64.1171 94.6467C-44.3382 67.4143 -18.8198 44.3742 4.833 20.8526C16.079 9.65093 27.4104 -1.52132 38.0448 -13.3571C43.5823 -19.5103 54.5018 -29.5161 54.4655 -37.5582Z" stroke="#5BE7C3"/>
<path fill-rule="evenodd" clip-rule="evenodd" d="M61.2815 -39.1047C55.2191 -48.8119 44.5826 -55.9867 35.7534 -62.7389C23.0476 -72.4595 9.94256 -81.6399 -2.96544 -91.085C-15.1707 -100.017 -27.4019 -109.05 -38.7049 -119.193C-45.5971 -125.379 -54.2448 -132.775 -57.5094 -141.924C-64.5909 -161.752 -26.4944 -158.744 -17.0896 -159.263C6.29161 -160.546 32.7999 -160.841 54.4308 -171.281C67.9378 -177.8 73.4868 -188.612 70.606 -203.622C69.6103 -208.815 67.8159 -213.249 70.0874 -218.415C72.7141 -224.395 78.7558 -228.123 84.2945 -230.754C101.644 -238.998 122.152 -240.75 140.96 -242.207C160.389 -243.713 180.633 -244.775 199.437 -243.673C206.957 -243.234 215.612 -245.724 223.054 -247.633C234.505 -250.575 245.839 -253.968 257.233 -257.124C280.388 -263.542 304.145 -269.724 328.234 -270.428C345.626 -270.936 363.759 -268.182 378.228 -257.536C392.891 -246.74 399.397 -230.005 407.529 -214.097C421.572 -186.593 440.54 -153.152 473.031 -147.341C477.957 -146.459 482.692 -146.938 487.614 -146.721C490.144 -146.611 493.025 -146.264 494.309 -143.689C497.641 -137.003 488.511 -124.779 485.438 -119.658C476.949 -105.507 467.404 -92.0477 458.507 -78.1688C451.441 -67.1486 442.485 -54.9036 439.752 -41.8403C436.435 -25.9879 458.105 -14.7083 465.726 -3.54631C478.938 15.8093 453.907 26.8375 441.567 36.0661C427.396 46.6611 415.699 65.9899 428.402 82.3826C433.262 88.6508 439.241 92.3866 441.411 100.567C444.806 113.36 442.239 127.98 439.485 140.626C435.336 159.636 428.771 178.441 419.845 195.623C413.451 207.924 402.843 227.213 387.308 225.766C376.851 224.8 366.219 221.273 356.037 218.155C340.79 213.489 325.735 208.17 310.76 202.645C276.193 189.927 242.006 175.903 208.492 160.479C185.624 149.951 121.836 106.926 117.036 105.391C102.726 100.818 86.4545 101.623 71.7002 102.332C52.0738 103.273 32.5458 105.712 13.0334 107.972C3.74528 109.041 -5.58957 110.349 -14.927 110.876C-21.5729 111.25 -30.301 111.571 -36.1223 107.584C-47.4848 99.8047 -34.8258 82.0055 -29.5905 74.4751C-13.5527 51.389 6.73501 31.397 25.7573 10.9557C35.0922 0.919533 44.5696 -9.10055 53.0436 -19.9416C56.4611 -24.3192 65.0284 -33.1092 61.2815 -39.1047Z" stroke="#5ACEF2"/>
<path fill-rule="evenodd" clip-rule="evenodd" d="M69.6687 -44.0831C53.1121 -63.5084 30.2608 -77.9555 10.5386 -94.1789C0.639984 -102.324 -9.32092 -110.691 -17.8584 -120.393C-22.2996 -125.438 -27.8452 -131.818 -28.7008 -138.85C-30.9875 -157.663 3.34926 -155.119 13.6264 -155.833C33.4963 -157.219 55.9433 -158.27 73.9698 -167.87C84.9833 -173.739 90.4071 -183.371 88.3486 -196.032C87.4359 -201.649 86.0152 -206.421 88.3486 -211.937C90.713 -217.524 95.639 -221.467 100.627 -224.423C114.962 -232.924 132.776 -235.642 148.915 -237.667C167.848 -240.025 186.923 -240.946 205.986 -240.422C222.683 -239.97 239.299 -245.055 255.602 -248.406C277.198 -252.844 299.186 -256.72 321.286 -256.134C338.739 -255.669 356.33 -252.012 371.251 -242.294C386.413 -232.397 395.528 -217.583 403.747 -201.598C416.171 -177.433 431.654 -145.05 458.91 -135.873C462.874 -134.535 466.569 -134.388 470.657 -134.155C472.643 -134.043 475.208 -134.008 476.193 -131.871C478.562 -126.725 469.802 -116.747 467.357 -113.27C459.553 -102.169 451.093 -91.5682 443.095 -80.6144C435.628 -70.3882 427.495 -59.7314 422.857 -47.7478C415.476 -28.6623 439.074 -17.5025 438.413 0.684203C438.001 11.975 427.524 20.072 419.228 25.6732C409.013 32.5611 394.305 37.0898 389.192 49.6592C385.383 59.0214 391.359 64.4702 395.961 71.5747C403.76 83.6118 404.291 99.9288 403.48 113.862C402.386 132.691 398.111 151.798 390.833 169.105C387.535 176.95 383.496 185.111 377.548 191.205C371.977 196.916 366.703 198.379 359.257 197.21C336.463 193.626 313.448 183.635 291.59 174.711C264.126 163.498 237.041 151.119 210.765 137.19C192.847 127.692 174.525 117.642 158.798 104.519C154.699 101.098 150.502 97.3796 147.505 92.867C145.239 89.4753 144.277 86.6746 140.458 84.738C129.138 79.0003 113.393 80.5009 101.265 81.0974C81.8722 82.047 62.5726 84.5748 43.299 86.8512C32.0522 88.1886 10.8653 92.3963 1.88442 82.3038C-5.86754 73.589 3.48666 58.7298 8.26488 51.0528C20.3517 31.6383 35.8997 14.5991 50.3251 -2.94566C56.9363 -10.9864 63.8067 -19.0887 69.2668 -28.0283C70.6616 -30.3073 72.8965 -33.3273 73.2802 -36.0958C73.7106 -39.2683 71.7013 -41.6891 69.6687 -44.0831Z" stroke="#5BE7C3"/>
<path fill-rule="evenodd" clip-rule="evenodd" d="M71.092 -39.561C55.7932 -56.7365 37.362 -70.8468 20.9379 -86.9194C13.5737 -94.1258 6.13699 -101.686 0.525708 -110.477C-2.49256 -115.204 -5.69755 -121.155 -4.86519 -127.031C-2.47703 -143.896 25.7635 -142.373 37.1728 -143.361C54.1259 -144.812 73.6021 -146.273 88.5923 -155.367C98.412 -161.323 102.094 -170.12 100.261 -181.465C98.2928 -193.634 102.693 -202.468 112.707 -209.257C125.263 -217.762 141.111 -221.228 155.689 -223.691C173.253 -226.644 191.039 -227.953 208.83 -227.602C226.134 -227.26 242.897 -230.252 260.087 -232.199C282.877 -234.777 306.398 -236.048 328.931 -230.764C348.55 -226.162 366.271 -216.022 379.555 -200.34C393.43 -183.973 400.299 -163.352 411.565 -145.245C418.592 -133.951 428.391 -119.011 441.522 -114.621C445.902 -113.156 453.883 -115.132 450.385 -107.928C448.386 -103.808 444.644 -100.194 441.688 -96.8269C436.912 -91.3846 431.978 -86.0922 427.121 -80.7248C416.77 -69.2835 405.684 -57.5985 397.926 -44.0503C388.15 -26.9927 402.682 -13.8648 400.911 3.43112C399.959 12.739 393.689 20.1676 387.056 26.0034C382.765 29.7832 378.069 33.0572 373.274 36.1116C368.267 39.3026 362.342 41.7333 357.976 45.8585C351.752 51.7291 354.454 58.6785 355.621 66.2677C357.675 79.605 358.126 93.1529 356.964 106.604C355.543 123.092 352.211 140.05 345.192 155.033C342.461 160.867 339.002 167.05 333.866 170.961C328.729 174.872 323.416 174.605 317.53 173.427C300.071 169.947 282.648 161.849 266.087 154.174C245.358 144.566 225.037 133.829 205.631 121.614C192.235 113.182 178.796 104.072 167.589 92.6386C164.329 89.3111 161.228 85.748 158.72 81.77C156.999 79.0422 156.076 75.522 153.581 73.4714C145.776 67.0708 130.106 68.9822 120.953 69.3543C102.685 70.0958 84.7054 73.6213 66.4609 74.478C56.5037 74.9464 40.9093 76.1243 33.597 67.3733C26.7203 59.147 32.9488 46.1904 37.0587 38.2639C45.1359 22.6786 55.9877 8.79311 65.7141 -5.69467C69.7125 -11.6563 74.0947 -17.8936 76.6851 -24.7012C78.9877 -30.7672 75.0127 -35.1574 71.092 -39.561Z" stroke="#5ACEF2"/>
<path fill-rule="evenodd" clip-rule="evenodd" d="M74.8549 -39.2801C62.6775 -54.394 47.9973 -67.8105 35.7319 -83.1703C28.5524 -92.1654 16.1885 -107.287 21.7409 -119.969C27.8321 -133.904 49.0648 -134.283 61.338 -135.406C75.9457 -136.743 93.1002 -138.568 105.601 -147.269C109.555 -150.02 112.923 -153.661 114.351 -158.457C115.88 -163.589 114.208 -168.08 113.991 -173.218C113.535 -183.996 119.769 -192.649 128.018 -198.591C139.677 -206.993 154.256 -210.965 168.027 -213.734C183.629 -216.858 199.489 -218.398 215.382 -218.332C230.57 -218.279 245.597 -218.626 260.801 -219.027C280.683 -219.562 300.846 -218.698 320.133 -213.248C339.132 -207.875 356.406 -197.805 369.974 -182.993C383.211 -168.54 392.142 -150.873 399.964 -132.877C404.403 -122.663 411.901 -107.4 422.487 -102.24C427.195 -99.9443 431.815 -100.102 426.809 -94.1302C420.505 -86.6107 412.01 -80.5774 404.708 -74.1458C394.176 -64.8647 383.38 -55.4018 374.54 -44.3671C368.894 -37.3207 366.378 -30.4828 366.767 -21.3594C367.067 -14.4093 368.43 -7.5313 367.741 -0.554415C366.127 15.8212 353.631 27.0511 342.583 37.5084C335.476 44.234 328.986 49.3637 325.328 58.9309C321.001 70.2382 319.184 82.54 316.293 94.2804C313.117 107.173 309.448 120.584 302.514 131.94C296.343 142.049 288.837 146.583 277.603 143.859C260.08 139.614 242.809 129.157 227.253 119.483C211.42 109.64 195.859 98.5735 182.738 85.0447C175.655 77.739 170.82 69.161 164.529 61.3126C156.617 51.4595 138.716 55.1912 128.078 56.0252C110.418 57.4099 54.8503 67.7709 59.9778 34.2124C62.1179 20.2052 70.5462 7.27788 76.71 -5.0827C79.2646 -10.2124 82.9619 -16.3687 83.5397 -22.2469C84.1692 -28.6491 78.5158 -34.7304 74.8549 -39.2801Z" stroke="#FF8062"/>
<path fill-rule="evenodd" clip-rule="evenodd" d="M81.2844 -37.9967C71.9787 -51.693 60.8419 -64.6324 52.8571 -79.4252C47.6772 -89.0053 42.5905 -101.806 49.2726 -111.942C56.8145 -123.381 73.4446 -126.048 85.664 -127.505C98.2537 -129.006 113.283 -130.268 123.573 -138.941C126.847 -141.704 129.545 -145.43 130.048 -149.891C130.532 -154.17 129.165 -158.45 129.618 -162.806C130.633 -172.59 136.38 -180.651 143.79 -186.497C165.709 -203.793 198.332 -207.639 224.778 -208.091C238.015 -208.316 251.638 -207.137 264.961 -206.291C282.249 -205.195 299.563 -202.841 316.05 -197.169C351.105 -185.112 374.601 -158.372 391.011 -125.098C396.175 -114.625 400.128 -103.293 408.221 -94.876C412.394 -90.5298 411.482 -87.4087 407.216 -83.445C400.547 -77.2508 392.412 -72.5169 385.01 -67.347C374.482 -59.9947 363.728 -52.5328 354.418 -43.7256C348 -37.6544 343.444 -31.8052 342.061 -22.7011C341.074 -16.21 341.305 -9.59593 340.712 -3.06473C339.582 9.34241 335.716 21.656 328.87 31.9475C323.431 40.1048 316.957 47.5186 310.264 54.5874C301.565 63.7905 294.206 73.1406 287.6 84.0634C278.84 98.5219 266.533 125.192 245.901 118.134C223.146 110.346 201.818 90.5572 187.218 71.3835C182.316 64.9459 178.291 57.0507 171.679 52.3034C161.78 45.2079 151.736 45.4566 139.962 45.486C122.335 45.5261 83.9779 49.4764 83.5635 22.2176C83.4003 11.4179 87.9276 1.2065 90.0953 -9.18137C92.5403 -20.8156 87.6401 -28.6626 81.2844 -37.9967Z" stroke="#F1B170"/>
<path fill-rule="evenodd" clip-rule="evenodd" d="M88.2154 -36.7755C79.0108 -54.6262 58.3705 -83.9587 74.0691 -103.808C82.3615 -114.299 97.0287 -118.241 109.333 -120.59C119.234 -122.49 131.175 -123.204 138.657 -131.259C144.156 -137.182 141.714 -145.801 143.821 -153.215C146.436 -162.407 152.438 -169.927 159.813 -175.58C180.422 -191.378 209.077 -196.226 233.869 -197.258C259.617 -198.327 287.987 -193.327 312.217 -183.708C342.427 -171.71 365.06 -148.992 380.888 -120.224C383.809 -114.913 386.462 -109.464 389.266 -104.089C391.15 -100.484 393.944 -96.9959 395.429 -93.2034C397.901 -86.8799 394.988 -81.7109 390.318 -77.5897C383.602 -71.6564 375.351 -67.4336 367.693 -62.9809C357.221 -56.8873 346.516 -50.9032 336.775 -43.7538C330.229 -38.9431 323.378 -33.7608 321.035 -25.4141C319.436 -19.7213 319.105 -13.6918 319.162 -7.7959C319.286 4.84578 318.643 15.0687 312.927 26.6467C303.52 45.6546 289.055 62.7463 273.774 76.9675C261.781 88.1285 242.804 105.466 225.33 98.004C209.653 91.3223 200.482 75.3291 190.152 62.3988C185.13 56.1127 179.489 50.3718 172.86 45.9005C164.503 40.2638 156.636 37.8985 146.734 36.9765C130.069 35.4237 104.94 35.0201 99.7885 14.3872C97.8864 6.77276 98.9722 -1.11425 97.9746 -8.82754C96.6711 -19.0264 92.8592 -27.7713 88.2154 -36.7755Z" stroke="#5BE7C3"/>
<path fill-rule="evenodd" clip-rule="evenodd" d="M97.7865 -36.1145C91.232 -55.6466 82.6212 -80.2624 98.452 -97.6219C106.12 -106.031 116.906 -110.733 127.345 -114.246C134.822 -116.763 146.693 -117.505 151.277 -125.245C154.643 -130.942 155.109 -138.8 158.155 -144.903C162.34 -153.294 168.679 -160.205 176.117 -165.615C195.493 -179.713 220.729 -185.161 243.744 -186.72C293.751 -190.105 344.633 -163.148 371.392 -118.797C379.371 -105.577 389.67 -91.5055 376.776 -77.9989C362.699 -63.2642 341.492 -56.361 324.69 -45.8913C318.27 -41.8939 310.089 -37.0885 306.508 -29.8509C304.353 -25.5003 304.206 -20.042 304.107 -15.2527C303.848 -3.05445 302.867 7.91563 298.115 19.2978C290.775 36.8874 279.073 53.1151 265.811 66.4076C254.245 77.9984 237.751 91.6201 220.955 83.2641C208.076 76.8425 199.908 63.2129 189.902 53.1659C178.766 41.9764 164.994 34.4365 149.87 30.7521C135.158 27.1775 119.022 24.7668 111.268 9.57987C108.609 4.37042 105.83 -2.37484 104.833 -8.14083C103.223 -17.6477 100.867 -27.0032 97.7865 -36.1145V-36.1145Z" stroke="#FF8062"/>
<path fill-rule="evenodd" clip-rule="evenodd" d="M108.459 -35.9769C105.426 -55.7002 105.089 -76.2661 119.178 -91.8109C125.753 -99.063 134.065 -104.215 142.47 -108.883C148.653 -112.318 155.039 -115.215 159.658 -120.846C163.937 -126.06 167.189 -132.113 171.32 -137.464C176.77 -144.554 183.29 -150.691 190.631 -155.641C209.032 -168.024 231.417 -173.815 252.832 -175.824C263.199 -176.8 274.444 -177.309 284.741 -174.647C294.686 -172.079 304.519 -168.018 313.662 -163.283C333.1 -153.228 349.946 -138.502 362.158 -119.883C370.532 -107.112 375.06 -94.6946 364.216 -81.7393C351.991 -67.1361 332.823 -59.0788 317.024 -49.601C306.188 -43.1006 294.043 -36.7286 292.019 -22.9146C290.407 -11.9227 289.098 -1.48997 284.928 8.89999C278.722 24.2254 269.596 38.108 258.093 49.7242C247.574 60.3067 234.265 69.2869 219.218 63.6345C207.296 59.1484 198.046 49.0982 187.63 41.913C176.022 33.8878 163.268 29.4632 149.838 25.9054C137.768 22.6953 126.404 17.7625 118.602 7.2896C117.006 5.14954 115.329 2.81956 114.098 0.425378C112.528 -2.62955 112.649 -5.65772 112.341 -9.08181C111.537 -18.1182 109.83 -27.0502 108.459 -35.9769Z" stroke="#F1B170"/>
<path fill-rule="evenodd" clip-rule="evenodd" d="M120.225 -37.589C120.484 -56.3232 124.849 -74.0285 136.805 -88.6284C141.916 -94.874 148.019 -100.018 153.643 -105.742C158.171 -110.355 162.451 -114.642 167.658 -118.444C180.009 -127.447 190.047 -139.097 203.173 -147.114C220.695 -157.831 240.767 -163.755 260.682 -166.124C270.407 -167.281 280.453 -167.686 290.292 -166.378C298.742 -165.256 306.835 -161.314 314.342 -157.282C329.056 -149.383 343.343 -138.157 352.897 -123.953C373.96 -92.6394 332.432 -69.8728 311.117 -56.5402C301.314 -50.4071 286.336 -43.3041 282.321 -31.1559C279.451 -22.4774 277.702 -13.6515 274.005 -5.24097C264.076 17.3461 243.919 43.9121 217.058 40.3753C205.564 38.8642 195.088 32.7257 184.358 28.6049C173.31 24.3607 161.907 21.9949 150.423 19.3985C139.69 16.9737 131.137 13.5227 124.204 4.2708C120.891 -0.147481 121.184 -5.43656 120.889 -10.8569C120.407 -19.7605 120.109 -28.7149 120.225 -37.589Z" stroke="#5BE7C3"/>
<path fill-rule="evenodd" clip-rule="evenodd" d="M130.94 -39.9886C135.256 -68.2661 151.283 -99.1372 174.849 -115.559C202.569 -134.877 232.601 -151.144 265.721 -155.821C281.076 -157.989 297.897 -159.056 312.386 -151.965C323.413 -146.572 336.222 -138.511 342.29 -127.174C357.137 -99.4447 324.113 -77.3702 305.298 -64.5416C295.169 -57.6353 282.274 -50.9055 274.639 -40.8201C270.21 -34.9727 267.948 -27.2375 264.372 -20.8152C253.534 -1.35297 235.695 14.3446 213.472 17.152C203.197 18.4488 192.847 16.8445 182.65 15.5692C172.211 14.2644 161.643 13.5558 151.27 11.735C142.989 10.2805 133.23 7.81798 130.18 -1.32891C126.334 -12.8554 129.179 -28.4407 130.94 -39.9886Z" stroke="#5ACEF2"/>
<path fill-rule="evenodd" clip-rule="evenodd" d="M141.447 -44.5311C147.741 -71.1168 161.068 -97.0495 183.473 -112.921C195.354 -121.337 209.146 -127.146 222.387 -132.886C237.397 -139.391 253.079 -144.441 269.096 -146.946C289.039 -150.066 321.339 -152.878 331.758 -129.423C342.099 -106.142 315.967 -85.5376 300.513 -73.7955C290.605 -66.2733 280.001 -59.3693 270.535 -51.1461C265.402 -46.688 261.447 -41.5367 257.104 -36.3079C245.098 -21.8203 227.983 -10.3511 210.537 -4.22851C193.63 1.70677 172.713 4.33457 154.865 2.37309C147.165 1.53016 141.66 -1.31439 139.331 -9.40114C136.104 -20.6428 138.846 -33.549 141.447 -44.5311Z" stroke="#F1B170"/>
<path fill-rule="evenodd" clip-rule="evenodd" d="M-204.759 -12.4716C-205.088 -33.3562 -215.839 -55.0612 -210.529 -76.3413C-206.169 -93.8187 -184.219 -95.2778 -171.051 -103.196C-160.587 -109.487 -154.649 -120.631 -148.99 -131.323C-143.905 -140.922 -139.338 -150.81 -133.982 -160.251C-130.515 -166.355 -124.561 -178.341 -117.041 -178.557C-109.843 -178.766 -103.242 -169.426 -99.0603 -163.904C-93.6083 -156.708 -88.7748 -149.035 -83.4807 -141.724C-74.5588 -129.391 -63.8541 -120.262 -51.5968 -111.622C-37.6482 -101.791 -23.4693 -92.2963 -9.06008 -83.1372C1.54888 -76.3734 12.2303 -69.6604 22.4278 -62.2285C28.8243 -57.5652 42.942 -48.8159 43.0066 -40.2188C43.0377 -36.1167 39.2728 -31.5737 36.7344 -28.2947C32.4391 -22.7442 27.5434 -17.6693 22.6323 -12.704C13.4853 -3.45495 3.95013 5.37458 -5.48149 14.311C-17.7232 25.9091 -29.4163 37.3175 -40.178 50.4843C-51.3045 64.1134 -61.9341 78.1915 -72.7811 92.0772C-80.1272 101.484 -87.4655 112.048 -98.0615 117.82C-111.333 125.036 -122.227 117.427 -135.648 117.339C-147.194 117.262 -146.343 89.64 -147.81 81.9595C-149.282 74.1856 -152.527 66.9488 -153.784 59.1562C-155.353 49.4287 -155.373 39.4768 -155.759 29.6451C-156.227 17.6194 -156.413 6.17094 -168.862 1.58515C-175.947 -1.02042 -183.611 -1.56826 -190.944 -3.12893C-195.695 -4.14176 -204.656 -5.87345 -204.759 -12.4716Z" stroke="#FF8062"/>
<path fill-rule="evenodd" clip-rule="evenodd" d="M-199.083 -16.1867C-200.293 -33.6932 -207.443 -56.1002 -200.682 -74.1714C-194.906 -89.6143 -176.841 -91.6163 -164.676 -99.7285C-154.634 -106.42 -150.164 -117.369 -145.144 -128.125C-141.117 -136.754 -137.212 -145.466 -132.64 -153.819C-129.271 -159.975 -124.127 -170.367 -117.123 -171.641C-110.825 -172.787 -104.072 -163.612 -100.537 -158.944C-95.3802 -152.13 -90.9695 -144.73 -86.4137 -137.485C-78.4086 -124.758 -70.2118 -113.314 -58.4957 -103.965C-46.7279 -94.5764 -33.8534 -87.5561 -20.8416 -80.2495C-10.6623 -74.5327 -0.53485 -68.6499 9.13653 -62.0498C16.3408 -57.1359 26.6989 -50.8464 29.9953 -42.0838C32.6049 -35.1518 19.3703 -23.6486 15.4675 -19.5884C7.43393 -11.2407 -1.07906 -3.40413 -9.6076 4.38425C-20.0046 13.8748 -30.7333 22.1744 -39.9149 33.0005C-56.3371 52.3564 -70.0641 76.4602 -91.195 90.846C-103.94 99.5229 -118.123 101.742 -132.298 100.444C-137.911 99.9298 -139.259 91.7479 -139.966 86.9759C-141.143 79.0483 -141.291 70.9843 -142.195 63.0246C-143.043 55.5735 -144.924 48.4943 -146.44 41.1877C-147.974 33.7847 -148.404 26.1998 -149.534 18.7459C-150.234 14.1184 -150.926 8.73343 -153.986 5.01321C-157.153 1.16184 -162.378 -0.452039 -166.944 -1.67784C-175.519 -3.95815 -198.228 -3.83235 -199.083 -16.1867Z" stroke="#5BE7C3"/>
<path fill-rule="evenodd" clip-rule="evenodd" d="M-191.778 -23.5152C-193.813 -39.5848 -196.663 -59.5997 -188.371 -74.405C-181.593 -86.5107 -167.139 -89.1221 -156.814 -97.0099C-148.227 -103.569 -144.984 -114.002 -140.721 -123.696C-137.223 -131.648 -133.708 -139.635 -129.468 -147.202C-126.253 -152.941 -122.11 -160.722 -115.727 -162.724C-110.269 -164.434 -104.103 -156.771 -101.078 -152.957C-95.9259 -146.456 -91.7256 -139.173 -87.5538 -131.985C-80.7297 -120.224 -74.45 -107.662 -64.7375 -98.0951C-55.2998 -88.8121 -44.0887 -83.3326 -32.6675 -77.1715C-23.9195 -72.4511 -15.226 -67.549 -6.9836 -61.9198C-0.654659 -57.6003 7.18846 -52.4817 10.4865 -45.2942C13.3385 -39.0957 6.01653 -31.7585 2.35814 -27.3856C-3.68301 -20.1687 -10.3879 -13.5479 -16.9995 -6.90031C-24.1347 0.271149 -32.0375 6.88664 -38.942 14.2345C-53.4615 29.6974 -65.0616 46.8175 -82.9568 58.6639C-94.5465 66.3378 -110.142 73.3088 -123.842 72.0552C-133.695 71.1518 -133.046 48.6404 -133.993 41.4475C-135.548 29.6867 -138.554 17.3298 -143.327 6.49639C-147.426 -2.78667 -157.167 -5.64937 -166.128 -7.73158C-171.741 -9.03864 -177.624 -9.74429 -183.053 -11.765C-189.338 -14.1065 -190.925 -16.7794 -191.778 -23.5152Z" stroke="#5ACEF2"/>
<path fill-rule="evenodd" clip-rule="evenodd" d="M318.342 315.334C297.238 328.55 273.38 339.46 250.882 350.549C218.005 366.752 184.643 382.519 150.097 394.589C131.576 401.058 107.576 410.386 87.7024 405.317C80.4363 403.464 73.8101 397.861 67.2952 394.22C58.3117 389.2 49.196 384.428 40.096 379.645C21.8414 370.059 3.5298 360.568 -14.4113 350.367C-23.0503 345.454 -31.4329 339.265 -40.4268 335.073C-45.6827 332.622 -51.9722 333.769 -57.5882 333.924C-70.5972 334.285 -83.5984 334.969 -96.5997 335.552C-112.502 336.263 -128.441 337.019 -144.362 336.739C-151.542 336.61 -169.128 337.926 -173.081 331.542C-175.208 328.104 -170.196 321.904 -167.872 319.036C-163.606 313.764 -158.702 309.014 -153.863 304.311C-142.673 293.436 -130.788 283.08 -120.841 270.933C-115.73 264.688 -109.034 257.058 -112.37 248.533C-115.738 239.922 -121.571 232.466 -125.13 223.885C-129.228 214.01 -130.928 203.734 -132.863 193.262C-134.295 185.523 -137.632 178.666 -140.769 171.531C-144.235 163.645 -147.825 155.692 -150.231 147.375C-151.822 141.882 -154.389 131.998 -148.825 128.52C-140.919 123.575 -126.094 127.579 -117.082 129.036C-104.627 131.047 -92.2634 133.608 -79.8424 135.813C-70.8252 137.417 -61.7769 139.176 -52.6094 139.363C-37.8312 139.665 -23.0037 138.62 -8.2643 137.647C19.0282 135.845 46.1251 133.402 73.5096 133.402C97.5014 133.402 152.944 162.052 165.922 167.096C191.826 177.166 218.419 186.713 242.932 200.111C249.564 203.739 259.77 208.572 263.259 216.039C265.412 220.64 264.422 223.3 269.5 226.264C276.426 230.309 285.301 231.897 292.969 233.707C305.317 236.621 317.761 239.088 330.167 241.727C355.258 247.049 380.177 253.07 405.164 258.863C412.718 260.614 421.857 261.001 429.058 264.086C433.7 266.067 433.218 268.561 429.625 271.572C423.323 276.854 414.49 279.787 407.045 282.799C396.137 287.213 385.05 291.151 373.958 295.032C362.866 298.914 351.716 302.675 340.619 306.565C333.288 309.126 324.929 311.209 318.342 315.334Z" stroke="#FF8062"/>
<path fill-rule="evenodd" clip-rule="evenodd" d="M300.975 312.426C278.651 325.67 253.871 336.221 229.983 346.514C199.409 359.696 168.144 372.051 135.931 380.291C117.017 385.126 94.7008 390.464 75.3748 384.92C68.4803 382.942 63.3294 378.495 57.4194 374.57C50.6829 370.092 43.6873 365.987 36.6917 361.948C22.2912 353.633 7.73861 345.601 -6.96596 337.854C-14.7544 333.733 -23.3279 328.216 -32.1268 326.786C-39.1224 325.649 -47.0689 327.295 -54.0956 327.774C-66.7498 328.636 -79.4015 329.525 -92.0609 330.28C-106.669 331.15 -121.318 331.953 -135.957 331.814C-144.116 331.736 -158.123 333.019 -163.893 327.576C-168.927 322.827 -150.599 305.65 -147.375 302.387C-137.309 292.198 -126.723 282.496 -117.354 271.6C-111.817 265.175 -105.075 257.36 -102.741 248.845C-100.754 241.587 -104.588 233.317 -106.853 226.608C-109.685 218.205 -111.97 209.493 -115.26 201.267C-118.191 193.937 -122.855 187.407 -126.951 180.744C-131.456 173.414 -136.019 165.963 -139.364 157.967C-141.414 153.046 -144.805 144.806 -140.732 140.116C-136.027 134.708 -121.523 138.242 -115.561 139.013C-103.466 140.598 -91.465 142.954 -79.4533 145.063C-59.5029 148.565 -40.4826 151.627 -20.1669 150.894C6.28941 149.935 32.7198 147.681 59.1709 146.434C68.9389 145.968 78.8622 145.031 88.6379 145.537C94.2422 145.829 98.5095 147.596 101.769 151.582C106.22 157.022 116.473 160.034 123.603 163.155C134.721 168.019 145.979 172.544 157.205 177.127C181.85 187.193 206.97 196.895 230.343 209.914C237.737 214.031 246.205 218.622 251.674 225.425C254.726 229.219 253.957 232.873 255.82 236.905C258.286 242.208 266.396 244.601 271.244 246.336C280.6 249.688 290.339 251.934 300.003 254.038C321.871 258.798 343.791 261.928 366.013 264.233C371.221 264.768 391.729 266.623 380.958 275.565C369.058 285.446 351.874 290.289 337.865 295.858C325.245 300.864 312.614 305.522 300.975 312.426Z" stroke="#5BE7C3"/>
<path fill-rule="evenodd" clip-rule="evenodd" d="M270.124 309.977C249.141 321.628 225.895 330.321 203.296 338.636C175.872 348.727 147.761 357.721 118.999 362.759C100.931 365.921 81.0111 368.351 63.0649 363.096C50.8094 359.509 41.3293 349.812 30.5652 343.14C19.8011 336.468 8.60131 330.206 -2.9331 324.986C-10.0918 321.746 -17.7927 318.482 -25.7581 318.91C-45.1256 319.947 -64.4699 322.42 -83.8582 323.62C-96.6842 324.422 -109.536 325.082 -122.401 324.884C-130.159 324.766 -140.817 325.248 -147.685 321.035C-155.277 316.376 -114.853 276.598 -111.033 272.12C-101.454 260.894 -89.8549 245.995 -91.7068 230.03C-93.4784 214.767 -101.156 203.373 -109.84 191.414C-114.768 184.611 -130.572 166.438 -124.715 157.591C-121.369 152.534 -110.34 154.284 -105.101 154.629C-94.7752 155.308 -84.5066 156.768 -74.2353 158.035C-59.259 159.871 -43.8703 162.707 -28.8291 163.538C-18.3556 164.115 -7.81974 163.343 2.67198 163.327C17.7157 163.306 32.7595 163.423 47.8033 163.562C60.4348 163.68 73.1727 163.562 85.7602 164.813C93.5855 165.583 99.5252 167.312 105.138 172.198C110.022 176.448 117.391 178.937 123.616 181.639C133.898 186.1 144.314 190.235 154.697 194.437C176.435 203.236 198.422 211.851 219.229 222.848C228.728 227.865 244.697 234.889 246.925 247.054C247.73 251.44 248.321 253.335 252.471 255.829C258.361 259.368 265.416 260.964 272.025 262.351C287.432 265.585 303.285 265.101 318.666 268.298C324.93 269.616 333.108 272.46 325.957 278.971C317.613 286.586 305.466 290.772 295.47 295.476C290.48 297.823 285.339 300.02 280.6 302.886C276.961 305.094 273.846 307.924 270.124 309.977Z" stroke="#5ACEF2"/>
<path fill-rule="evenodd" clip-rule="evenodd" d="M230.381 306.339C210.995 315.803 189.941 322.683 169.265 328.886C146.3 335.766 122.781 341.465 98.9506 343.89C82.496 345.57 64.964 346.066 48.9936 340.924C38.8939 337.671 32.0469 330.831 23.356 325.095C10.2394 316.424 -3.95188 309.555 -19.7099 311.226C-37.3765 313.097 -55.101 314.5 -72.8833 315.436C-83.6096 316.001 -94.3774 316.424 -105.117 316.03C-111.907 315.784 -120.655 315.369 -126.562 312.194C-134.465 307.942 -104.777 275.586 -101.077 270.871C-91.8991 259.175 -85.1712 246.904 -81.2401 232.414C-78.0341 220.591 -84.5833 211.296 -91.3397 202.452C-95.5402 196.959 -109.113 183.145 -104.863 176.012C-102.532 172.079 -94.8513 172.283 -90.726 172.082C-82.8638 171.701 -74.968 172.098 -67.1058 172.272C-55.4963 172.54 -43.1385 170.699 -31.6275 172.181C-6.11682 175.46 19.3291 178.3 44.9978 180.548C59.1476 181.786 73.383 182.912 87.4059 185.299C92.4402 186.156 97.6403 187.064 102.41 189.004C105.479 190.25 107.152 192.372 109.742 194.114C122.089 202.404 138.207 206.669 152.114 211.982C170.601 219.045 189.187 225.998 207.183 234.341C216.648 238.73 229.868 243.772 236.381 252.729C238.349 255.435 237.51 257.6 238.748 260.202C240.172 263.202 244.5 264.097 247.294 264.933C253.636 266.833 280.182 269.705 267.949 280.848C262.112 286.156 254.674 289.562 248.094 293.733C245.711 295.244 243.389 296.764 241.402 298.802C238.08 302.221 234.806 304.172 230.381 306.339Z" stroke="#F1B170"/>
<path fill-rule="evenodd" clip-rule="evenodd" d="M188.034 302.242C149.764 317.553 104.912 327.983 63.1872 325.963C49.3118 325.288 34.3829 323.037 22.3551 315.334C15.263 310.783 9.59558 305.647 1.07625 304.003C-5.07386 302.818 -11.6963 304.164 -17.8827 304.651C-26.8432 305.358 -35.8089 305.989 -44.7823 306.501C-55.907 307.124 -67.068 307.606 -78.2135 307.349C-86.1775 307.164 -97.175 307.373 -104.093 302.957C-112.353 297.689 -91.3285 272.978 -88.3702 268.575C-81.2003 257.904 -76.1738 247.564 -74.3573 234.702C-73.8228 230.955 -72.0218 227.114 -72.2554 223.337C-72.4993 219.48 -74.8011 216.046 -76.9264 213.013C-79.7056 209.039 -89.3486 199.612 -86.5875 194.764C-85.0616 192.087 -79.3345 191.75 -76.3658 191.183C-70.797 190.112 -65.1477 189.537 -59.5452 188.685C-50.0397 187.235 -40.6018 182.51 -31.0626 182.644C-5.41123 182.998 20.6113 191.21 45.7489 195.72C60.6934 198.41 75.7391 200.851 90.502 204.494C95.1729 205.647 99.984 206.841 104.424 208.798C107.522 210.163 109.513 212.596 112.383 214.124C123.388 219.994 136.044 223.557 147.861 227.508C163.203 232.647 178.596 237.631 193.832 243.102C203.381 246.53 215.661 249.547 223.889 255.907C229.899 260.551 225.791 261.94 222.62 266.265C221.001 268.471 221.375 270.644 220.672 273.142C219.667 276.707 216.828 279.274 214.166 281.581C210.494 284.769 205.602 287.395 202.6 291.303C201.541 292.678 201.591 294.386 200.734 295.585C198.243 299.078 191.634 300.802 188.034 302.242Z" stroke="#FF8062"/>
<path fill-rule="evenodd" clip-rule="evenodd" d="M147.345 296.787C116.284 306.413 81.7229 311.894 48.8901 309.351C37.4666 308.464 25.9731 306.405 15.3319 301.883C10.4905 299.832 6.85626 297.545 1.55119 297.422C-10.7582 297.138 -23.1065 298.132 -35.4133 298.37C-44.2205 298.541 -53.0718 298.603 -61.8583 297.872C-67.7332 297.385 -75.6779 296.801 -80.4908 293.082C-87.4848 287.665 -74.8593 269.252 -72.2897 264.164C-68.0311 255.727 -63.8063 246.348 -65.4952 236.585C-66.0133 233.6 -66.9302 230.962 -67.0494 227.918C-67.1634 225.302 -66.8447 222.887 -67.7436 220.386C-68.8549 217.286 -73.7973 212.474 -72.098 209.62C-70.9401 207.67 -67.5053 207.579 -65.2206 206.956C-61.515 205.944 -57.8968 204.617 -54.4032 202.987C-50.7249 201.263 -47.5932 198.599 -43.7827 197.174C-37.597 194.866 -30.6729 194.65 -24.1711 194.66C1.77138 194.703 28.0428 199.986 53.3274 205.51C66.4942 208.385 79.7335 211.451 92.5299 215.813C96.4155 217.138 100.819 218.469 104.236 220.916C106.368 222.44 107.813 224.349 110.235 225.495C130.924 235.279 154.844 238.912 176.807 245.978C182.524 247.818 214.207 257.111 197.642 265.854C187.578 271.166 176.945 273.581 167.762 280.848C164.964 283.057 163.099 284.886 162.006 288.257C161.286 290.501 163.019 289.363 160.6 291.708C157.665 294.528 150.963 295.666 147.345 296.787Z" stroke="#F1B170"/>
<path fill-rule="evenodd" clip-rule="evenodd" d="M115.048 291.096C78.6828 298.953 40.1718 299.326 3.23229 292.361C-6.07987 290.607 -15.7712 291.026 -25.1977 290.58C-34.3566 290.153 -50.6405 291.042 -57.2928 283.773C-62.1164 278.503 -56.8824 267.303 -55.0719 261.409C-52.7653 253.899 -50.7496 246.141 -54.5368 238.847C-56.7551 234.576 -59.7942 230.51 -62.1736 226.278C-63.3113 224.257 -65.6543 221.16 -64.6776 219.246C-63.0619 216.088 -55.5031 214.758 -51.8354 213.269C-40.1127 208.509 -27.6991 207.294 -15.166 207.329C7.98318 207.39 31.2519 210.658 53.9595 215.089C64.4068 217.129 74.9995 219.305 85.0753 222.85C90.7769 224.855 94.9823 228.724 100.427 231.017C117.957 238.407 136.792 242.355 154.624 249.112C159.786 251.069 179.064 257.583 169.352 265.264C159.949 272.699 146.234 271.815 136.457 278.81C135.351 279.611 133.982 280.569 133.34 281.864C132.961 282.638 133.628 284.112 133.34 284.552C130.337 289.339 119.664 290.1 115.048 291.096Z" stroke="#5ACEF2"/>
<path fill-rule="evenodd" clip-rule="evenodd" d="M91.4877 285.903C72.8312 288.544 53.7645 289.199 34.7938 289.366C24.4242 289.457 13.0314 290.139 2.88516 287.428C-3.3475 285.758 -9.36721 284.298 -15.7921 283.246C-22.7051 282.113 -33.8356 281.289 -38.0453 275.15C-41.1902 270.563 -39.0347 261.133 -38.9204 255.555C-38.7984 249.438 -40.0137 244.902 -44.1974 240.524C-46.8281 237.767 -58.8961 227.76 -57.5016 224.875C-56.1745 222.126 -47.7656 221.705 -44.1299 220.991C-32.6384 218.725 -20.9937 217.936 -9.30489 218.059C8.7984 218.247 26.9692 220.153 44.7894 223.428C52.157 224.789 59.7712 226.198 66.8089 228.917C71.5483 230.75 75.5009 234.001 80.2091 235.896C93.6925 241.332 107.95 245.022 121.48 250.557C125.822 252.337 139.97 257.074 136.578 264.376C133.75 270.471 124.131 272.326 119.405 276.412C111.365 283.38 101.74 284.453 91.4877 285.903Z" stroke="#5ACEF2"/>
<path fill-rule="evenodd" clip-rule="evenodd" d="M79.7346 282.4C64.9351 284.148 49.7917 284.913 34.775 284.95C25.0837 284.974 14.8596 285.111 5.3493 282.862C0.572191 281.734 -3.57901 279.095 -8.10006 277.213C-12.7556 275.277 -19.1803 273.117 -21.1925 268.678C-23.0832 264.507 -22.3771 258.422 -24.0376 253.393C-25.5144 248.93 -28.6052 246.174 -31.9339 243.158C-34.0547 241.23 -44.9461 232.885 -43.6866 231.043C-42.3365 229.07 -35.7954 229.23 -32.3917 228.958C-23.0138 228.193 -13.6029 227.95 -4.19975 228.228C8.63404 228.634 21.5661 229.768 34.1775 232.335C43.1239 234.153 49.8719 238.484 58.2131 241.661C69.0191 245.786 80.2131 249.048 90.9157 253.561C96.2489 255.81 104.143 258.703 106.874 264.507C107.924 266.732 108.943 272.389 107.774 274.614C106.37 277.288 101.142 278.421 98.6749 279.108C92.4934 280.822 86.0248 281.656 79.7346 282.4Z" stroke="#FF8062"/>
<path fill-rule="evenodd" clip-rule="evenodd" d="M65.8701 278.131C47.3699 280.28 26.4672 282.104 7.91029 277.779C0.411129 276.033 -7.05707 270.862 -10.1151 263.81C-11.6995 260.165 -12.0402 255.827 -14.4066 252.294C-16.1588 249.683 -18.3884 247.325 -20.587 245.127C-21.8257 243.886 -29.761 237.087 -28.2307 235.873C-26.6153 234.592 -22.6515 235.011 -19.9445 234.979C-13.4595 234.901 -6.94868 235.158 -0.484334 235.666C6.94773 236.252 14.5553 237.009 21.7628 239.062C27.5769 240.727 32.8748 244.233 38.5366 246.315C53.4214 251.829 69.1061 256.149 83.0799 264.313C86.0528 266.048 91.9313 268.646 88.3598 272.567C83.9161 277.454 71.5861 277.47 65.8701 278.131Z" stroke="#F1B170"/>
<path fill-rule="evenodd" clip-rule="evenodd" d="M49.7436 274.257C36.57 275.762 21.9561 276.469 8.73032 273.369C2.03263 271.8 -3.94233 268.532 -6.85936 262.207C-8.94668 257.699 -9.51025 252.668 -12.3621 248.335C-13.3718 246.807 -17.082 242.517 -15.253 241.58C-11.3393 239.566 -2.60383 241.885 2.82581 242.941C10.9977 244.542 17.8206 249.023 25.5906 251.68C37.5092 255.754 52.611 257.931 63.4729 264.875C73.9408 271.59 53.5868 273.817 49.7436 274.257Z" stroke="#5BE7C3"/>
</svg>
