<svg width="628" height="284" viewBox="0 0 628 284" fill="none" xmlns="http://www.w3.org/2000/svg">
<path fill-rule="evenodd" clip-rule="evenodd" d="M267.465 252.442C267.424 243.268 250.882 232.952 243.815 227.633C229.843 217.114 215.312 207.4 200.915 197.53C186.518 187.661 172.082 177.818 158.354 166.983C149.44 159.95 138.966 152.028 132.921 141.985C120.042 120.582 160.647 123.76 171.165 123.292C197.922 122.096 228.613 122.642 253.693 111.497C268.665 104.843 274.635 93.6841 271.42 77.4207C270.383 72.1315 267.315 66.0451 269.914 60.8924C272.689 55.3892 279.074 52.2136 284.373 50.084C303.701 42.3255 325.924 41.4266 346.374 40.4527C368.425 39.3826 390.684 39.6956 412.58 39.6127C421.864 39.5779 431.561 36.1347 440.402 33.3363C451.992 29.6684 463.446 25.5484 474.94 21.5648C500.228 12.8218 526.286 3.61322 553.04 1.39269C569.795 0.00150777 588.107 1.88228 601.123 13.9829C607.658 20.0586 611.079 29.0905 614.857 37.1139C619.43 46.8067 623.822 56.5931 628.691 66.1334C644.376 96.8597 666.769 126.885 703.117 128.394C708.615 128.621 714.015 127.88 719.488 127.741C722.973 127.656 726.075 128.525 727.371 132.289C730.628 141.731 720.39 156.635 716.192 164.126C707.001 180.523 696.636 196.185 686.927 212.253C680.503 222.879 669.384 237.401 669.267 250.312C669.164 261.816 683.986 270.131 692.055 275.798C699.616 281.103 713.316 288.527 714.145 299.319C714.547 304.552 711.204 308.889 707.713 312.254C701.596 318.14 694.547 322.292 689.044 329.008C680.018 340.025 672.478 355.183 673.704 370.029C674.553 380.315 680.239 387.052 687.471 393.491C690.51 396.199 692.977 398.114 693.138 402.51C693.397 409.49 690.749 416.877 688.567 423.348C680.762 446.509 669.677 468.904 657.345 489.815C651.183 500.264 644.526 510.682 636.356 519.596C631.005 525.45 623.789 532.417 615.626 532.409C606.176 532.409 596.176 528.888 586.99 526.255C569.834 521.335 552.885 515.648 536.003 509.813C496.962 496.313 458.287 481.72 419.98 466.033C392.998 454.965 365.443 443.881 340.074 429.167C335.127 426.278 330.457 422.908 326.128 419.105C321.503 415.111 315.764 413.324 309.944 411.991C273.822 403.722 234.248 410.07 197.976 414.051C188.77 415.06 179.563 416.074 170.331 416.78C162.394 417.388 152.892 419.129 145.177 416.513C129.977 411.363 143.265 392.381 148.883 384.647C168.662 357.414 194.18 334.374 217.833 310.853C229.079 299.651 240.41 288.479 251.045 276.643C256.582 270.49 267.502 260.484 267.465 252.442Z" stroke="#5BE7C3"/>
<path fill-rule="evenodd" clip-rule="evenodd" d="M274.282 250.895C268.219 241.188 257.583 234.013 248.753 227.261C236.048 217.54 222.943 208.36 210.035 198.915C197.829 189.983 185.598 180.95 174.295 170.807C167.403 164.621 158.755 157.225 155.491 148.076C148.409 128.248 186.506 131.256 195.91 130.737C219.292 129.454 245.8 129.159 267.431 118.719C280.938 112.2 286.487 101.388 283.606 86.3782C282.61 81.1849 280.816 76.7512 283.087 71.5847C285.714 65.6053 291.756 61.8775 297.295 59.2461C314.644 51.0016 335.152 49.2501 353.96 47.7927C373.389 46.2871 393.633 45.2254 412.437 46.3272C419.957 46.7658 428.612 44.2761 436.054 42.3668C447.505 39.4252 458.839 36.0317 470.233 32.8762C493.388 26.4582 517.145 20.2755 541.234 19.5722C558.626 19.0641 576.759 21.8185 591.228 32.4643C605.891 43.2599 612.397 59.9948 620.529 75.9034C634.572 103.407 653.54 136.848 686.031 142.659C690.957 143.541 695.692 143.062 700.614 143.279C703.144 143.389 706.025 143.736 707.309 146.311C710.641 152.997 701.511 165.221 698.438 170.342C689.949 184.493 680.404 197.952 671.507 211.831C664.441 222.851 655.485 235.096 652.752 248.16C649.435 264.012 671.105 275.292 678.726 286.454C691.938 305.809 666.907 316.838 654.567 326.066C640.396 336.661 628.699 355.99 641.402 372.383C646.262 378.651 652.241 382.387 654.411 390.567C657.806 403.36 655.239 417.98 652.485 430.626C648.336 449.636 641.771 468.441 632.845 485.623C626.451 497.924 615.843 517.213 600.308 515.766C589.851 514.8 579.219 511.273 569.037 508.155C553.79 503.489 538.735 498.17 523.76 492.645C489.193 479.927 455.006 465.903 421.492 450.479C398.624 439.951 334.836 396.926 330.036 395.391C315.726 390.818 299.454 391.623 284.7 392.332C265.074 393.273 245.546 395.712 226.033 397.972C216.745 399.041 207.41 400.349 198.073 400.876C191.427 401.25 182.699 401.571 176.878 397.584C165.515 389.805 178.174 372.006 183.41 364.475C199.447 341.389 219.735 321.397 238.757 300.956C248.092 290.92 257.57 280.899 266.044 270.058C269.461 265.681 278.028 256.891 274.282 250.895Z" stroke="#5ACEF2"/>
<path fill-rule="evenodd" clip-rule="evenodd" d="M282.669 245.917C266.112 226.492 243.261 212.044 223.539 195.821C213.64 187.676 203.679 179.309 195.142 169.607C190.7 164.562 185.155 158.182 184.299 151.15C182.012 132.337 216.349 134.881 226.626 134.167C246.496 132.781 268.943 131.73 286.97 122.13C297.983 116.261 303.407 106.629 301.349 93.9685C300.436 88.3512 299.015 83.5791 301.349 78.0635C303.713 72.4756 308.639 68.5327 313.627 65.577C327.962 57.0761 345.776 54.3584 361.915 52.3334C380.848 49.9749 399.923 49.0541 418.986 49.5783C435.683 50.0304 452.299 44.9453 468.602 41.5937C490.198 37.156 512.186 33.2801 534.286 33.8659C551.739 34.3313 569.33 37.9879 584.251 47.7058C599.413 57.603 608.528 72.4167 616.747 88.402C629.171 112.567 644.654 144.95 671.91 154.127C675.874 155.465 679.569 155.612 683.657 155.845C685.643 155.957 688.208 155.992 689.193 158.129C691.562 163.275 682.802 173.253 680.357 176.73C672.553 187.831 664.093 198.432 656.095 209.386C648.628 219.612 640.495 230.269 635.857 242.252C628.476 261.338 652.074 272.497 651.413 290.684C651.001 301.975 640.524 310.072 632.228 315.673C622.013 322.561 607.305 327.09 602.192 339.659C598.383 349.021 604.359 354.47 608.961 361.575C616.76 373.612 617.291 389.929 616.48 403.862C615.386 422.691 611.111 441.798 603.833 459.105C600.535 466.95 596.496 475.111 590.548 481.205C584.977 486.916 579.703 488.379 572.257 487.21C549.463 483.626 526.448 473.635 504.59 464.711C477.126 453.498 450.041 441.119 423.765 427.19C405.847 417.692 387.525 407.642 371.798 394.519C367.699 391.098 363.502 387.38 360.505 382.867C358.239 379.475 357.277 376.675 353.458 374.738C342.138 369 326.393 370.501 314.265 371.097C294.872 372.047 275.573 374.575 256.299 376.851C245.052 378.189 223.865 382.396 214.884 372.304C207.132 363.589 216.487 348.73 221.265 341.053C233.352 321.638 248.9 304.599 263.325 287.054C269.936 279.014 276.807 270.911 282.267 261.972C283.662 259.693 285.897 256.673 286.28 253.904C286.711 250.732 284.701 248.311 282.669 245.917Z" stroke="#5BE7C3"/>
<path fill-rule="evenodd" clip-rule="evenodd" d="M284.092 250.439C268.793 233.264 250.362 219.153 233.938 203.081C226.574 195.874 219.137 188.314 213.526 179.523C210.507 174.796 207.302 168.845 208.135 162.969C210.523 146.104 238.763 147.627 250.173 146.639C267.126 145.188 286.602 143.727 301.592 134.633C311.412 128.677 315.094 119.88 313.261 108.535C311.293 96.3658 315.693 87.5318 325.707 80.743C338.263 72.2383 354.111 68.7716 368.689 66.3088C386.253 63.3557 404.039 62.0467 421.83 62.3977C439.134 62.7404 455.897 59.7475 473.087 57.8013C495.877 55.2234 519.398 53.9519 541.931 59.2362C561.55 63.8379 579.271 73.9783 592.555 89.66C606.43 106.027 613.299 126.648 624.565 144.755C631.592 156.049 641.391 170.989 654.522 175.379C658.902 176.844 666.883 174.868 663.385 182.072C661.386 186.192 657.644 189.806 654.688 193.173C649.912 198.615 644.978 203.908 640.121 209.275C629.77 220.717 618.684 232.402 610.926 245.95C601.15 263.007 615.682 276.135 613.911 293.431C612.959 302.739 606.689 310.168 600.056 316.003C595.765 319.783 591.069 323.057 586.274 326.112C581.267 329.303 575.342 331.733 570.976 335.858C564.752 341.729 567.454 348.678 568.621 356.268C570.675 369.605 571.126 383.153 569.964 396.604C568.543 413.092 565.211 430.05 558.192 445.033C555.461 450.867 552.002 457.05 546.866 460.961C541.729 464.872 536.416 464.605 530.53 463.427C513.071 459.947 495.648 451.849 479.087 444.174C458.358 434.566 438.037 423.829 418.631 411.614C405.235 403.182 391.796 394.072 380.589 382.639C377.329 379.311 374.228 375.748 371.72 371.77C369.999 369.042 369.076 365.522 366.581 363.471C358.776 357.071 343.106 358.982 333.953 359.354C315.685 360.096 297.705 363.621 279.461 364.478C269.504 364.946 253.909 366.124 246.597 357.373C239.72 349.147 245.949 336.19 250.059 328.264C258.136 312.679 268.988 298.793 278.714 284.305C282.713 278.344 287.095 272.106 289.685 265.299C291.988 259.233 288.013 254.843 284.092 250.439Z" stroke="#5ACEF2"/>
<path fill-rule="evenodd" clip-rule="evenodd" d="M287.855 250.72C275.678 235.606 260.997 222.19 248.732 206.83C241.552 197.835 229.189 182.713 234.741 170.031C240.832 156.096 262.065 155.717 274.338 154.594C288.946 153.257 306.1 151.432 318.601 142.731C322.555 139.98 325.923 136.339 327.351 131.543C328.88 126.411 327.208 121.92 326.991 116.782C326.535 106.004 332.769 97.3514 341.018 91.409C352.677 83.0074 367.256 79.0351 381.027 76.2657C396.629 73.1422 412.489 71.6022 428.382 71.6679C443.57 71.7214 458.597 71.3739 473.801 70.9729C493.683 70.4383 513.846 71.3017 533.133 76.7522C552.132 82.1252 569.406 92.1949 582.974 107.007C596.211 121.46 605.142 139.127 612.964 157.123C617.403 167.337 624.901 182.6 635.487 187.76C640.195 190.056 644.815 189.898 639.809 195.87C633.505 203.389 625.01 209.423 617.708 215.854C607.176 225.135 596.38 234.598 587.54 245.633C581.894 252.679 579.378 259.517 579.767 268.641C580.067 275.591 581.43 282.469 580.741 289.446C579.127 305.821 566.631 317.051 555.583 327.508C548.476 334.234 541.986 339.364 538.328 348.931C534.001 360.238 532.184 372.54 529.293 384.28C526.117 397.173 522.448 410.584 515.514 421.94C509.343 432.049 501.837 436.583 490.603 433.859C473.08 429.614 455.809 419.157 440.253 409.483C424.42 399.64 408.859 388.573 395.738 375.045C388.655 367.739 383.82 359.161 377.529 351.313C369.617 341.459 351.716 345.191 341.078 346.025C323.418 347.41 267.85 357.771 272.978 324.212C275.118 310.205 283.546 297.278 289.71 284.917C292.265 279.788 295.962 273.631 296.54 267.753C297.169 261.351 291.516 255.27 287.855 250.72Z" stroke="#FF8062"/>
<path fill-rule="evenodd" clip-rule="evenodd" d="M294.284 252.003C284.979 238.307 273.842 225.368 265.857 210.575C260.677 200.995 255.591 188.194 262.273 178.058C269.815 166.619 286.445 163.952 298.664 162.495C311.254 160.994 326.283 159.732 336.573 151.059C339.847 148.296 342.545 144.57 343.048 140.109C343.532 135.83 342.165 131.55 342.618 127.194C343.633 117.41 349.38 109.349 356.79 103.503C378.709 86.2065 411.332 82.3606 437.778 81.9086C451.015 81.6839 464.638 82.8634 477.961 83.7085C495.249 84.8051 512.563 87.1587 529.05 92.8314C564.105 104.888 587.601 131.628 604.011 164.902C609.175 175.375 613.128 186.707 621.221 195.124C625.394 199.47 624.482 202.591 620.216 206.555C613.547 212.749 605.412 217.483 598.01 222.653C587.482 230.005 576.728 237.467 567.418 246.274C561 252.346 556.444 258.195 555.061 267.299C554.074 273.79 554.305 280.404 553.712 286.935C552.582 299.342 548.716 311.656 541.87 321.948C536.431 330.105 529.957 337.519 523.264 344.587C514.565 353.79 507.206 363.141 500.6 374.063C491.84 388.522 479.533 415.192 458.901 408.134C436.146 400.346 414.818 380.557 400.218 361.383C395.316 354.946 391.291 347.051 384.679 342.303C374.78 335.208 364.736 335.457 352.962 335.486C335.335 335.526 296.978 339.476 296.564 312.218C296.4 301.418 300.928 291.207 303.095 280.819C305.54 269.184 300.64 261.337 294.284 252.003Z" stroke="#F1B170"/>
<path fill-rule="evenodd" clip-rule="evenodd" d="M301.215 253.224C292.011 235.374 271.371 206.041 287.069 186.192C295.361 175.701 310.029 171.759 322.333 169.41C332.234 167.51 344.175 166.796 351.657 158.741C357.156 152.818 354.714 144.199 356.821 136.785C359.436 127.593 365.438 120.073 372.813 114.42C393.422 98.6219 422.077 93.7737 446.869 92.742C472.617 91.6729 500.987 96.6735 525.217 106.292C555.427 118.29 578.06 141.008 593.888 169.776C596.809 175.087 599.462 180.536 602.266 185.911C604.15 189.516 606.944 193.004 608.429 196.797C610.901 203.12 607.988 208.289 603.318 212.41C596.602 218.344 588.351 222.566 580.693 227.019C570.221 233.113 559.516 239.097 549.775 246.246C543.229 251.057 536.378 256.239 534.035 264.586C532.436 270.279 532.105 276.308 532.162 282.204C532.286 294.846 531.643 305.069 525.927 316.647C516.52 335.655 502.055 352.746 486.774 366.967C474.781 378.128 455.804 395.466 438.33 388.004C422.653 381.322 413.482 365.329 403.152 352.399C398.13 346.113 392.489 340.372 385.86 335.9C377.503 330.264 369.636 327.899 359.734 326.976C343.069 325.424 317.94 325.02 312.789 304.387C310.886 296.773 311.972 288.886 310.975 281.172C309.671 270.974 305.859 262.229 301.215 253.224Z" stroke="#5BE7C3"/>
<path fill-rule="evenodd" clip-rule="evenodd" d="M310.786 253.885C304.232 234.353 295.621 209.738 311.452 192.378C319.12 183.969 329.906 179.267 340.345 175.754C347.822 173.237 359.693 172.495 364.277 164.755C367.643 159.058 368.109 151.2 371.155 145.097C375.34 136.706 381.679 129.795 389.117 124.385C408.493 110.287 433.729 104.839 456.744 103.28C506.751 99.8949 557.633 126.852 584.392 171.203C592.371 184.423 602.67 198.495 589.776 212.001C575.699 226.736 554.492 233.639 537.69 244.109C531.27 248.106 523.089 252.912 519.508 260.149C517.353 264.5 517.206 269.958 517.107 274.747C516.848 286.946 515.867 297.916 511.115 309.298C503.775 326.887 492.073 343.115 478.811 356.408C467.245 367.998 450.751 381.62 433.955 373.264C421.076 366.843 412.908 353.213 402.902 343.166C391.766 331.976 377.994 324.436 362.87 320.752C348.158 317.177 332.022 314.767 324.268 299.58C321.609 294.37 318.83 287.625 317.833 281.859C316.223 272.352 313.867 262.997 310.786 253.885V253.885Z" stroke="#FF8062"/>
<path fill-rule="evenodd" clip-rule="evenodd" d="M321.459 254.023C318.426 234.3 318.089 213.734 332.178 198.189C338.753 190.937 347.065 185.785 355.47 181.117C361.653 177.682 368.039 174.785 372.658 169.154C376.937 163.94 380.189 157.887 384.32 152.536C389.77 145.446 396.29 139.309 403.631 134.359C422.032 121.976 444.417 116.185 465.832 114.176C476.199 113.2 487.444 112.691 497.741 115.353C507.686 117.921 517.519 121.982 526.662 126.717C546.1 136.772 562.946 151.498 575.158 170.117C583.532 182.888 588.06 195.305 577.216 208.261C564.991 222.864 545.823 230.921 530.024 240.399C519.188 246.899 507.043 253.271 505.019 267.085C503.407 278.077 502.098 288.51 497.928 298.9C491.722 314.225 482.596 328.108 471.093 339.724C460.574 350.307 447.265 359.287 432.218 353.635C420.296 349.148 411.046 339.098 400.63 331.913C389.022 323.888 376.268 319.463 362.838 315.905C350.768 312.695 339.404 307.762 331.602 297.29C330.006 295.15 328.329 292.82 327.098 290.425C325.528 287.37 325.649 284.342 325.341 280.918C324.537 271.882 322.83 262.95 321.459 254.023Z" stroke="#F1B170"/>
<path fill-rule="evenodd" clip-rule="evenodd" d="M333.225 252.411C333.484 233.677 337.849 215.972 349.805 201.372C354.916 195.126 361.019 189.982 366.643 184.258C371.171 179.645 375.451 175.358 380.658 171.556C393.009 162.553 403.047 150.903 416.173 142.886C433.695 132.169 453.767 126.245 473.682 123.876C483.407 122.719 493.453 122.314 503.292 123.622C511.742 124.744 519.835 128.686 527.342 132.718C542.056 140.617 556.343 151.843 565.897 166.047C586.96 197.361 545.432 220.127 524.117 233.46C514.314 239.593 499.336 246.696 495.321 258.844C492.451 267.523 490.702 276.348 487.005 284.759C477.076 307.346 456.919 333.912 430.058 330.375C418.564 328.864 408.088 322.726 397.358 318.605C386.31 314.361 374.907 311.995 363.423 309.399C352.69 306.974 344.137 303.523 337.204 294.271C333.891 289.853 334.184 284.563 333.889 279.143C333.407 270.24 333.109 261.285 333.225 252.411Z" stroke="#5BE7C3"/>
<path fill-rule="evenodd" clip-rule="evenodd" d="M343.94 250.011C348.256 221.734 364.283 190.863 387.849 174.441C415.569 155.123 445.601 138.856 478.721 134.179C494.076 132.011 510.897 130.944 525.386 138.035C536.413 143.428 549.222 151.489 555.29 162.826C570.137 190.555 537.113 212.63 518.298 225.458C508.169 232.365 495.274 239.094 487.639 249.18C483.21 255.027 480.948 262.762 477.372 269.185C466.534 288.647 448.695 304.345 426.472 307.152C416.197 308.449 405.847 306.845 395.65 305.569C385.211 304.264 374.643 303.556 364.27 301.735C355.989 300.28 346.23 297.818 343.18 288.671C339.334 277.145 342.179 261.559 343.94 250.011Z" stroke="#5ACEF2"/>
<path fill-rule="evenodd" clip-rule="evenodd" d="M354.447 245.469C360.741 218.883 374.068 192.95 396.473 177.079C408.354 168.663 422.146 162.854 435.387 157.114C450.397 150.609 466.079 145.559 482.096 143.054C502.039 139.934 534.339 137.122 544.758 160.577C555.099 183.858 528.967 204.462 513.513 216.205C503.605 223.727 493.001 230.631 483.535 238.854C478.402 243.312 474.447 248.463 470.104 253.692C458.098 268.18 440.983 279.649 423.537 285.771C406.63 291.707 385.713 294.335 367.865 292.373C360.165 291.53 354.66 288.686 352.331 280.599C349.104 269.357 351.846 256.451 354.447 245.469Z" stroke="#F1B170"/>
<path fill-rule="evenodd" clip-rule="evenodd" d="M364.888 238.308C371.14 214.901 384.626 193.521 404.296 179.472C426.346 163.723 454.739 154.972 480.835 150.522C494.707 148.158 524.767 141.749 531.837 160.091C538.907 178.433 518.468 196.508 506.704 206.459C492.426 218.517 477.032 230.159 461.656 240.979C448.298 250.385 434.043 260.003 419.574 267.267C411.413 271.388 402.912 274.753 394.171 277.321C387.699 279.208 379.469 282.022 372.683 280.618C355.568 277.071 361.898 249.501 364.888 238.308Z" stroke="#FF8062"/>
<path fill-rule="evenodd" clip-rule="evenodd" d="M377.775 231.299C391.493 187.032 434.957 165.261 476.805 157.673C486.529 155.911 513.789 149.56 519.225 163.083C524.492 176.193 507.74 191.742 499.898 199.109C475.596 221.936 445.571 238.861 417.12 255.628C408.24 260.862 392.223 272.219 381.207 266.98C369.247 261.281 374.933 240.478 377.775 231.299Z" stroke="#5ACEF2"/>
<path fill-rule="evenodd" clip-rule="evenodd" d="M391.827 222.779C403.757 190.18 438.456 171.483 470.359 165.319C478.173 163.811 498.018 159.115 503.936 168.212C509.413 176.628 496.343 188.821 491.453 193.667C480.567 204.456 467.666 213.345 454.92 221.888C443.136 229.793 431.224 237.895 418.824 244.58C412.293 248.099 400.043 255.608 392.622 250.174C384.631 244.329 389.178 230.017 391.827 222.779Z" stroke="#5ACEF2"/>
<path fill-rule="evenodd" clip-rule="evenodd" d="M407.311 213.254C416.404 191.966 440.757 178.142 462.24 173.548C468.02 172.315 480.514 169.115 485.39 174.8C489.879 180.036 482.644 187.712 479.433 191.257C465.201 206.97 444.361 221.005 425.266 229.626C420.465 231.793 411.834 236.047 406.896 231.672C401.83 227.18 405.223 218.143 407.311 213.254Z" stroke="#5BE7C3"/>
<path fill-rule="evenodd" clip-rule="evenodd" d="M423.738 204.312C428.862 193.741 442.253 185.765 453.346 183.227C461.153 181.441 470.537 182.984 463.733 192.185C456.974 201.317 444.433 209.657 433.804 213.354C425.694 216.174 419.338 213.392 423.738 204.312Z" stroke="#F1B170"/>
<path fill-rule="evenodd" clip-rule="evenodd" d="M8.24078 277.528C7.91216 256.644 -2.83914 234.939 2.47052 213.659C6.83054 196.181 28.7808 194.722 41.9488 186.804C52.4129 180.513 58.3513 169.369 64.0103 158.677C69.0948 149.078 73.6618 139.19 79.0181 129.749C82.4854 123.645 88.4394 111.659 95.9588 111.443C103.157 111.234 109.758 120.574 113.94 126.096C119.392 133.292 124.225 140.965 129.519 148.276C138.441 160.609 149.146 169.738 161.403 178.378C175.352 188.209 189.531 197.704 203.94 206.863C214.549 213.627 225.23 220.34 235.428 227.771C241.824 232.435 255.942 241.184 256.007 249.781C256.038 253.883 252.273 258.426 249.734 261.705C245.439 267.256 240.543 272.331 235.632 277.296C226.485 286.545 216.95 295.375 207.519 304.311C195.277 315.909 183.584 327.317 172.822 340.484C161.696 354.113 151.066 368.191 140.219 382.077C132.873 391.484 125.535 402.048 114.938 407.82C101.667 415.036 90.7733 407.427 77.3517 407.339C65.806 407.262 66.6573 379.64 65.1902 371.96C63.7179 364.186 60.4731 356.949 59.2155 349.156C57.6475 339.429 57.6268 329.477 57.2412 319.645C56.7729 307.619 56.5866 296.171 44.1379 291.585C37.0532 288.98 29.3888 288.432 22.0557 286.871C17.305 285.858 8.34428 284.127 8.24078 277.528Z" stroke="#FF8062"/>
<path fill-rule="evenodd" clip-rule="evenodd" d="M13.9168 273.813C12.7066 256.307 5.55673 233.9 12.3179 215.829C18.0943 200.386 36.1594 198.384 48.3238 190.272C58.3658 183.58 62.8361 172.631 67.8557 161.875C71.8829 153.246 75.7882 144.534 80.3596 136.181C83.7285 130.025 88.8726 119.633 95.8774 118.359C102.175 117.213 108.928 126.388 112.463 131.056C117.62 137.87 122.03 145.27 126.586 152.515C134.591 165.242 142.788 176.686 154.504 186.035C166.272 195.424 179.147 202.444 192.158 209.751C202.338 215.467 212.465 221.35 222.137 227.95C229.341 232.864 239.699 239.154 242.995 247.916C245.605 254.848 232.37 266.351 228.467 270.412C220.434 278.759 211.921 286.596 203.392 294.384C192.995 303.875 182.267 312.174 173.085 323.001C156.663 342.356 142.936 366.46 121.805 380.846C109.06 389.523 94.877 391.742 80.7017 390.444C75.0886 389.93 73.741 381.748 73.0335 376.976C71.857 369.048 71.7093 360.984 70.8048 353.025C69.9574 345.573 68.076 338.494 66.56 331.188C65.0259 323.785 64.5957 316.2 63.4658 308.746C62.7661 304.118 62.0742 298.733 59.0136 295.013C55.8469 291.162 50.6224 289.548 46.0563 288.322C37.4811 286.042 14.772 286.168 13.9168 273.813Z" stroke="#5BE7C3"/>
<path fill-rule="evenodd" clip-rule="evenodd" d="M21.2222 266.485C19.1869 250.415 16.3374 230.4 24.6291 215.595C31.4066 203.489 45.8612 200.878 56.1856 192.99C64.7729 186.431 68.0164 175.998 72.2789 166.304C75.7766 158.352 79.2924 150.365 83.5315 142.798C86.7466 137.059 90.8898 129.278 97.2732 127.276C102.731 125.566 108.897 133.229 111.922 137.043C117.074 143.544 121.274 150.827 125.446 158.015C132.27 169.776 138.55 182.338 148.263 191.905C157.7 201.188 168.911 206.667 180.332 212.829C189.08 217.549 197.774 222.451 206.016 228.08C212.345 232.4 220.188 237.518 223.486 244.706C226.338 250.904 219.017 258.242 215.358 262.614C209.317 269.831 202.612 276.452 196.001 283.1C188.865 290.271 180.962 296.887 174.058 304.235C159.538 319.697 147.938 336.817 130.043 348.664C118.453 356.338 102.858 363.309 89.1578 362.055C79.3053 361.152 79.9535 338.64 79.0072 331.448C77.4515 319.687 74.4465 307.33 69.6732 296.496C65.574 287.213 55.833 284.351 46.8724 282.268C41.2591 280.961 35.3761 280.256 29.9468 278.235C23.662 275.893 22.0752 273.221 21.2222 266.485Z" stroke="#5ACEF2"/>
<path fill-rule="evenodd" clip-rule="evenodd" d="M28.0365 258.952C26.8247 245.366 27.0971 229.301 34.9469 217.548C41.8262 207.254 54.0744 204.544 62.7857 196.435C69.5845 190.108 72.2547 179.792 75.911 171.426C80.3796 161.196 86.6412 142.302 97.9138 138.453C108.4 134.874 119.366 157.735 123.163 164.552C129.173 175.342 134.199 187.175 141.488 197.14C147.766 205.718 156.176 210.46 165.103 215.556C176.484 222.065 193.764 229.783 199.849 242.468C204.385 251.921 189.635 265.973 184.599 272.522C179.331 279.364 175.363 287.473 169.927 294.073C161.348 304.488 147.446 312.873 135.969 319.272C124.811 325.497 110.32 332.386 97.662 331.976C89.3426 331.708 87.7597 318.444 85.9847 311.964C83.4416 302.753 80.0604 294.499 72.7971 288.234C65.404 281.857 56.6901 278.852 47.5299 276.222C42.8278 274.881 37.464 273.836 33.2576 271.128C28.61 268.182 28.5036 264.175 28.0365 258.952Z" stroke="#F1B170"/>
<path fill-rule="evenodd" clip-rule="evenodd" d="M36.3392 251.121C36.4065 239.384 39.006 226.868 46.7139 217.814C53.1337 210.273 63.1825 207.752 69.3281 200.043C74.196 193.939 76.6739 185.371 79.933 178.283C83.9189 169.598 89.555 154.424 99.4666 151.41C109.14 148.476 117.697 165.188 121.406 171.801C126.838 181.498 131.235 191.776 136.716 201.446C141.009 209.032 146.26 213.922 153.251 218.812C161.459 224.555 172.909 230.917 177.293 240.419C180.454 247.299 172.803 258.292 170.025 264.353C168.163 268.423 166.458 272.558 165.522 276.97C164.793 280.406 164.72 283.586 162.607 286.536C157.286 293.957 145.621 294.926 137.706 297.372C127.194 300.618 116.041 304.308 105.041 305.012C98.2794 305.452 94.8289 299.021 90.9698 294.496C86.4097 289.148 79.9537 285.301 74.315 281.265C66.8735 275.93 58.775 272.611 50.3971 269.213C46.6182 267.679 42.1797 266.175 39.2517 263.126C36.1944 259.964 36.3159 255.358 36.3392 251.121Z" stroke="#FF8062"/>
<path fill-rule="evenodd" clip-rule="evenodd" d="M45.0595 244.154C46.3955 234.296 50.5589 224.874 57.5912 217.905C62.9819 212.555 70.141 209.543 74.4675 203.115C78.4989 197.122 81.3082 190.309 84.6379 183.902C88.1618 177.129 93.3971 165.808 101.525 163.964C110.284 161.979 117.031 173.4 120.767 179.729C125.488 187.727 129.074 196.333 133.294 204.607C136.473 210.774 140.529 216.415 145.326 221.34C150.357 226.533 157.179 231.506 159.724 238.645C161.974 244.969 157.764 252.62 157.021 259.032C156.226 265.883 157.619 273.079 153.213 278.962C144.125 291.094 121.316 288.844 108.277 289.103C95.4115 289.371 85.0677 281.947 74.6565 274.885C67.7796 270.222 60.6179 266.274 53.5676 261.93C46.38 257.497 43.884 252.829 45.0595 244.154Z" stroke="#5ACEF2"/>
<path fill-rule="evenodd" clip-rule="evenodd" d="M53.1615 238.511C57.1124 224.23 69.4522 216.64 78.2737 205.847C85.4916 197.012 90.9037 178.715 103.059 176.295C116.86 173.548 125.122 197.791 129.92 207.146C135.244 217.521 144.727 225.96 148.67 236.942C150.742 242.707 148.963 248.086 147.859 253.847C146.649 260.174 145.74 266.642 141.563 271.735C133.343 281.756 117.288 281.687 105.725 281.962C93.7561 282.249 83.1677 275.381 73.6311 268.527C63.5168 261.269 49.1147 253.157 53.1615 238.511Z" stroke="#5ACEF2"/>
<path fill-rule="evenodd" clip-rule="evenodd" d="M59.7789 234.639C64.2309 224.464 73.5862 216.192 81.1774 208.383C87.5135 201.873 94.3297 188.768 103.99 187.834C115.345 186.732 122.226 200.726 126.694 209.307C131.091 217.738 137.427 226.641 139.862 235.895C142.401 245.535 135.639 258.518 129.191 265.339C121.999 272.945 110.232 275.756 100.136 275.453C89.5646 275.144 79.8648 268.857 71.8586 262.337C63.2992 255.366 54.6015 246.45 59.7789 234.639Z" stroke="#FF8062"/>
<path fill-rule="evenodd" clip-rule="evenodd" d="M65.9191 232.723C70.1717 224.26 77.543 217.102 84.3398 210.716C89.5849 205.786 97.3246 197.403 104.892 197.198C113.217 196.971 120.272 204.007 123.582 211.22C126.844 218.333 130.282 227.252 130.77 235.056C131.831 252.051 110.239 271.088 94.0255 269.539C78.6532 268.07 57.4402 249.585 65.9191 232.723Z" stroke="#5ACEF2"/>
<path fill-rule="evenodd" clip-rule="evenodd" d="M71.5977 231.79C77.4643 220.764 91.7144 205.044 104.907 204.671C120.05 204.244 123.851 221.737 121.878 234.414C119.872 247.352 102.414 266.08 88.4926 263.549C74.9057 261.08 64.645 244.867 71.5977 231.79Z" stroke="#5BE7C3"/>
<path fill-rule="evenodd" clip-rule="evenodd" d="M77.5934 230.007C82.5605 220.775 93.1598 209.244 104.215 208.895C117.387 208.482 117.138 223.25 114.151 232.442C111.045 241.986 97.3659 258.287 85.8322 255.713C74.6168 253.201 72.8335 238.856 77.5934 230.007Z" stroke="#FF8062"/>
<path fill-rule="evenodd" clip-rule="evenodd" d="M82.8155 228.945C86.0941 222.357 94.2997 214.031 102.1 213.765C111.635 213.445 109.782 225.158 107.318 230.812C104.39 237.54 94.5748 249.229 86.3381 247.335C78.2286 245.47 80.1106 234.372 82.8155 228.945Z" stroke="#5ACEF2"/>
</svg>
